<?xml version="1.0" encoding="utf-8"?>

<!DOCTYPE svg PUBLIC "-//W3C//DTD SVG 1.1//EN" "http://www.w3.org/Graphics/SVG/1.1/DTD/svg11.dtd">
<svg version="1.1" id="Layer_1" xmlns="http://www.w3.org/2000/svg" xmlns:xlink="http://www.w3.org/1999/xlink" x="0px" y="0px"
	 viewBox="0 0 1693.2064 1661.0302" enable-background="new 0 0 1693.2064 1661.0302" xml:space="preserve">
<g>
	<path d="M290.1933,1014.0355c-5.9087-25.7437-37.7014-40.4178-37.7014-40.4178s-22.2105,27.0694-16.3021,52.8131
		c5.9087,25.7472,22.7856,43.8431,37.6979,40.4214C288.8018,1063.4272,296.1017,1039.7861,290.1933,1014.0355z"/>
	<path d="M180.1377,1032.074c-7.9608-25.186-40.8306-37.2534-40.8306-37.2534s-19.9604,28.7666-11.9995,53.9494
		c7.9608,25.1891,26.2392,41.8683,40.8271,37.2565C182.7258,1081.4148,188.0985,1057.2599,180.1377,1032.074z"/>
	<path d="M85.1465,1086.8416c-11.8863-23.5867-46.2639-30.2408-46.2639-30.2408s-15.1017,31.5863-3.2137,55.173
		c11.8881,23.5938,32.599,37.1316,46.2622,30.2478C95.596,1135.134,97.0363,1110.4314,85.1465,1086.8416z"/>
	<path d="M1545.1925,940.0229c6.1604-25.6866-15.7897-52.9721-15.7897-52.9721s-31.9315,14.3664-38.0919,40.0526
		c-6.1604,25.6832,0.9061,49.4018,15.7897,52.969C1521.9777,983.6392,1539.0321,965.7057,1545.1925,940.0229z"/>
	<path d="M1648.8038,977.932c7.79-25.2369-12.3683-53.8716-12.3683-53.8716s-32.7832,12.2973-40.5734,37.5338
		c-7.7902,25.2368-2.2518,49.3613,12.3679,53.8715C1622.8502,1019.9796,1641.0137,1003.1688,1648.8038,977.932z"/>
	<path d="M1439.7756,938.6466c4.1589-26.082-19.8267-51.5958-19.8267-51.5958s-30.7277,16.7838-34.8934,42.8657
		c-4.1586,26.082,4.7135,49.1888,19.827,51.5962C1419.9895,983.9235,1435.6102,964.7286,1439.7756,938.6466z"/>
	<path fill="#B24A26" d="M1007.4075,683.1317c-0.4158,0.8302-0.8281,1.6619-1.244,2.4582
		c-0.0374-0.0339-0.1049-0.0693-0.1389-0.0693c-0.7977-0.4161-1.5923-0.7963-2.3903-1.2121
		c1.2139-0.3806,2.4243-0.761,3.6346-1.1429C1007.3064,683.1655,1007.3739,683.1317,1007.4075,683.1317z"/>
	<path fill="#B24A26" d="M1460.6204,1351.8339c0.1724,37.3579-14.7147,57.6482-50.9297,52.0386
		c-13.5718-2.113-27.1775-4.3953-40.7157-6.8196h-0.037c-87.5613-15.6852-173.4924-37.6692-246.9982-59.136
		c-49.6147-14.4712-93.5828-28.7023-128.5538-40.6138c-16.3069-5.5383-30.6397-10.5933-42.7237-14.921c-0.034,0-0.034,0-0.034,0
		c-8.4832-3.0804-15.8236-5.7817-21.9501-8.0336c-13.6092-5.0549-21.051-7.9625-21.051-7.9625s-16.2394,9.5212-43.0721,24.4419
		c-0.1724,0.105-0.3822,0.2098-0.5882,0.3147c-4.1893,2.3195-8.5847,4.7773-13.2609,7.3369c-0.0339,0-0.0675,0-0.0675,0
		c-10.7352,5.8866-22.7485,12.3615-35.6981,19.2523c-25.1354,13.3994-53.9761,28.3201-84.6516,43.4508h-0.0356
		c-7.9286,3.9117-15.9603,7.8611-24.131,11.7728c-5.2983,2.5258-10.5945,5.0889-15.9621,7.5807h-0.0339
		c-100.7525,47.5048-211.9949,91.1279-275.8745,88.1494c-3.6008-0.1389-7.0277-0.4498-10.2819-0.8995
		c-24.7549-3.5298-40.2319-39.1569-49.8564-83.6492c-10.2144-47.0856-13.8847-104.0742-15.1661-143.2345
		c-0.8991-27.8367-0.6222-46.7034-0.6222-46.7034l11.4605-33.3447l0.1032-0.3109l8.0674-23.5092v-0.0337L514.9706,680.224
		l0.277-0.7963l3.1496-9.2103c0.0356-0.0353,0.0356-0.0353,0.0356-0.0353l1.1426-0.1031l2.803-0.2773
		c1.7668,0.9348,3.5672,1.87,5.4368,2.7355c0.7606,0.4158,1.5569,0.796,2.3533,1.1765l101.0298,30.469
		c0.0692,0,0.1385,0,0.1724,0.0339c11.2877,1.8696,23.1287,3.5316,35.5576,4.8469c0.59,0.0692,1.1782,0.1385,1.7668,0.2077
		c0.0336,0,0.0336,0,0.0693,0c2.0084,0.2081,4.0505,0.4158,6.0925,0.5883c0.4855,0.0696,0.9705,0.1049,1.4542,0.1389
		c0.485,0.0692,0.9348,0.1049,1.4199,0.1385c23.3011,2.1826,48.646,3.3238,76.1364,3.393
		c30.3641,0.0693,58.3379-0.7271,84.1678-2.3193c2.7692,6.4748,4.8808,13.4686,9.7969,17.8996
		c12.7062-0.7963,24.8951-1.8004,36.5637-2.9416c-13.1224,1.1412-25.3452,2.0421-26.4168,2.1809l10.975-17.7272
		c4.6727-4.7084,6.8196,2.2855,9.2069,4.9854c1.6297,1.8696,3.5668,1.6972,5.6092,0.519c2.3194-1.3846,2.5628-3.6347,4.4328-5.2627
		c2.0081-1.7311,4.8821-1.4185,6.8196,0.3819c1.4539,1.3846,1.8361,4.2925,4.2939,3.8767c1.9409-0.3112,3.0464-3.4623,5.0549-3.8767
		c2.2855-0.485,3.8105,1.4542,5.0209,2.9416c2.113,2.6663,4.95,5.4015,6.7521,8.2416c12.7737-1.7311,24.8581-3.7057,36.2829-5.8509
		c0.0336,0,0.1046,0,0.1385-0.0357c12.5338-2.355,24.3069-4.9517,35.3498-7.7208c0.4494-0.1385,0.8992-0.2417,1.3524-0.3466
		c6.2654-1.6263,12.2904-3.2881,18.106-5.0193h0.0336l0.9369-0.277l3.0461-0.9352c1.2104-0.7267,2.2148-1.7311,3.0464-2.9769
		c0.2773-0.3822,0.5546-0.832,0.798-1.2814c0.0339-0.0696,0.0675-0.1049,0.1014-0.1741c0.2095-0.4144,0.4158-0.8303,0.5883-1.2461
		c0.2773-0.5882,0.5208-1.2121,0.7641-1.8343c0.3448-0.9705,0.6561-1.9745,0.9331-3.0482c0.0339-0.1367,0.0714-0.2756,0.1049-0.4141
		c0.2064-0.7963,0.4158-1.5927,0.5883-2.4243c0.3448-1.7311,0.6931-3.4962,0.9705-5.2274c0.1389-0.7624,0.2773-1.5231,0.4158-2.2515
		c0.1388-0.8303,0.3112-1.6619,0.4497-2.4582c6.8875-2.4583,13.4333-4.95,19.6308-7.5468c0.2773,0.2081,0.5546,0.4498,0.8319,0.6578
		c0.2739,0.2417,0.5509,0.4494,0.8282,0.6218c0.5206,0.3823,1.038,0.6932,1.5927,0.9705c0.2434,0.1389,0.4867,0.2417,0.764,0.3466
		c0.4124,0.2081,0.8656,0.3466,1.349,0.4497c0.2772,0.1032,0.5546,0.1385,0.8656,0.1724c1.0378,0.1385,2.1808,0.1049,3.3912-0.1724
		c1.1089-2.3193,1.7686-5.2626,2.3907-8.3091c8.7601-4.0862,16.7905-8.3091,24.097-12.637c0.0338,0,0.0338,0,0.0338,0
		c0.382,0.2417,0.7642,0.4498,1.109,0.6222c0.3822,0.2077,0.7606,0.3801,1.1429,0.519c0.2059,0.1049,0.4497,0.1741,0.6931,0.2078
		c0.1385,0.0696,0.2773,0.1049,0.4497,0.1049c0.311,0.0693,0.6218,0.1032,0.9331,0.1032c0.2434,0,0.4868-0.0339,0.7268-0.0693
		c0.3147-0.0339,0.6256-0.1031,0.903-0.2081c0.1384,0,0.2772-0.0336,0.3787-0.1031c0.7977-0.2417,1.491-0.5883,2.147-1.0733
		c0.2773-0.1724,0.5208-0.3806,0.7607-0.6239c0.5883-0.4837,1.1089-1.1072,1.5587-1.7651c0.1049-0.1385,0.2097-0.2417,0.2773-0.3802
		c0.3483-0.4854,0.6221-0.9705,0.899-1.4894c0.4163-0.7624,0.7981-1.5587,1.1429-2.3886c0.3483-0.7963,0.6595-1.6284,0.9705-2.4583
		c1.4203-0.9705,2.8401-1.9745,4.1895-2.9789c0.4158,0.4162,0.8315,0.8656,1.2473,1.351c0.3113,0.3466,0.6561,0.6931,0.967,1.0733
		c1.8696,2.0424,3.8446,4.3635,5.5757,6.5779c0.3448,0.4515,0.6931,0.9012,1.038,1.351c1.2139,1.6279,2.2518,3.1849,2.9786,4.4663
		c9.3827-7.1323,17.2404-14.4034,23.8876-21.536c-1.0715-1.8344-1.8662-3.1497-2.3533-3.9813
		c1.0044-0.2081,2.0084-0.4158,2.9449-0.519c0.4836,0.7624,0.9335,1.5587,1.4167,2.355
		c36.0765,60.8654,143.6843,245.473,226.0182,418.9011c4.7097,9.9,9.3489,19.7322,13.8491,29.5308
		c1.3153,2.8401,2.6302,5.6802,3.912,8.5172c7.3403,16.067,14.3699,31.9246,21.0507,47.5048
		C1434.3763,1224.7,1460.377,1302.9122,1460.6204,1351.8339z"/>
	<linearGradient id="SVGID_1_" gradientUnits="userSpaceOnUse" x1="586.8651" y1="1027.8915" x2="1129.1012" y2="1027.8915">
		<stop  offset="0" style="stop-color:#FFFFFF"/>
		<stop  offset="1" style="stop-color:#BE6328"/>
	</linearGradient>
	<path fill="url(#SVGID_1_)" d="M1129.1012,1027.8881c0-149.4999-121.3824-270.6929-271.1191-270.6929
		c-149.7328,0-271.117,121.193-271.117,270.6929c0,149.5065,121.3842,270.6998,271.117,270.6998
		C1007.7188,1298.5879,1129.1012,1177.3945,1129.1012,1027.8881z"/>
	<g>
		<path fill="#FFE54C" d="M1004.2056,1469.6965c0-8.1454-6.6403-14.7487-14.8296-14.7487H804.2036
			c-8.1855,0-14.8261,6.6033-14.8261,14.7487l0,0c0,8.1484,6.6406,14.7517,14.8261,14.7517H989.376
			C997.5653,1484.4482,1004.2056,1477.845,1004.2056,1469.6965L1004.2056,1469.6965z"/>
		<path fill="#E5AF23" d="M1130.342,1282.3719c0,80.7039-51.4473,150.7135-126.7178,185.3362H789.3775
			c-75.2705-34.6227-126.7548-104.6323-126.7548-185.3362c0-62.5981,30.9523-118.7552,79.9788-156.9451
			c-0.4498-2.5967-0.6578-5.2644-0.6578-7.9625v-24.8242c0-27.5258,22.3323-49.858,49.8564-49.858h209.6399
			c27.5292,0,49.858,22.3323,49.858,49.858v24.8242c0,2.769-0.2433,5.5043-0.6896,8.1688
			C1099.4926,1163.7892,1130.342,1219.8787,1130.342,1282.3719z"/>
		<g>
			<polygon fill="#FFE54C" stroke="#FFFFFF" points="832.2013,1252.9933 864.5552,1271.6704 864.5552,1309.0322 832.2013,1327.7095 
				799.8488,1309.0322 799.8488,1271.6704 			"/>
			<polygon fill="#FFE54C" stroke="#FFFFFF" points="896.3344,1252.9933 928.6848,1271.6704 928.6848,1309.0322 896.3344,1327.7095 
				863.9836,1309.0322 863.9836,1271.6704 			"/>
			<polygon fill="#FFE54C" stroke="#FFFFFF" points="961.0356,1252.9933 993.3929,1271.6704 993.3929,1309.0322 961.0356,1327.7095 
				928.6848,1309.0322 928.6848,1271.6704 			"/>
			<polygon fill="#FFE54C" stroke="#FFFFFF" points="928.6848,1309.7828 961.0422,1328.4601 961.0422,1365.8214 928.6848,1384.4987 
				896.3378,1365.8214 896.3378,1328.4601 			"/>
			<polygon fill="#FFE54C" stroke="#FFFFFF" points="928.6848,1196.9546 961.0356,1215.6318 961.0356,1252.9933 928.6848,1271.6704 
				896.3344,1252.9933 896.3344,1215.6318 			"/>
			<polygon fill="#FFE54C" stroke="#FFFFFF" points="863.9805,1196.9546 896.3344,1215.6318 896.3344,1252.9933 863.9805,1271.6704 
				831.6297,1252.9933 831.6297,1215.6318 			"/>
			<polygon fill="#FFE54C" stroke="#FFFFFF" points="863.9836,1309.7828 896.3378,1328.4601 896.3378,1365.8214 863.9836,1384.4987 
				831.6314,1365.8214 831.6314,1328.4601 			"/>
		</g>
		<rect x="741.9437" y="1106.6819" fill="#FFE54C" width="309.3544" height="17.839"/>
		<path opacity="0.8" fill="#FFFFFF" d="M753.2335,1135.1375c-21.9453,19.8877-172.666,168.6504,36.9251,326.2583
			c0.8978,0.6727,0.6984-9.4064-9.0379-20.98c-94.8237-112.7063-84.5753-210.8064-9.4247-305.2783
			C774.5697,1131.5264,753.2335,1135.1375,753.2335,1135.1375z"/>
		<path opacity="0.8" fill="#FFFFFF" d="M769.101,1098.0026c3.0243-14.0995,30.9019-46.1794,30.9019-46.1794h9.6902
			l-20.2969,46.1794C789.3962,1098.0026,768.0357,1102.9661,769.101,1098.0026z"/>
	</g>
	<path fill="#61220E" d="M1007.4075,683.1317c-0.4158,0.8302-0.8281,1.6619-1.244,2.4582
		c-0.0374-0.0339-0.1049-0.0693-0.1389-0.0693c-0.7977-0.4161-1.5923-0.7963-2.3903-1.2121
		c1.2139-0.3806,2.4243-0.761,3.6346-1.1429C1007.3064,683.1655,1007.3739,683.1317,1007.4075,683.1317z"/>
	<path fill="#61220E" d="M1048.1941,637.1516c-0.1724,0.1389-0.3448,0.2773-0.5208,0.4161
		c-8.8616,6.5441-18.6266,12.395-29.152,17.3114c-0.1014,0.1046-0.1724,0.1385-0.2773,0.1385
		c-7.026,3.3591-14.3664,6.3024-22.0176,8.7942c-0.6595,0.242-1.3153,0.4497-1.9749,0.6578
		c-0.0675,0.0353-0.1385,0.0353-0.206,0.0693c-7.3743,2.3194-14.9919,4.2586-22.853,5.7816
		c-2.6982-1.004-5.4708-2.0084-8.2399-2.9415c-3.6686-1.2474-7.0295-2.4596-10.1095-3.6008
		c-3.5672-1.317-6.7151-2.5631-9.5552-3.7753c-10.2144-4.2582-15.8912-7.7545-17.8996-10.5592
		c-3.8106-5.2288,4.9836-8.1703,20.6687-9.8322c8.6896-0.9348,19.5262-1.4895,31.5053-1.8004
		c1.7311-0.0356,3.4623-0.0696,5.2644-0.1049c2.2518-0.0692,4.5715-0.1031,6.8909-0.1385c4.9161-0.0696,9.971-0.1388,15.1305-0.1724
		c5.3658-0.0356,10.8365-0.0356,16.3073-0.0696c0.4494-0.0353,0.8992-0.0353,1.3489,0
		C1031.1602,637.2565,1039.7819,637.2212,1048.1941,637.1516z"/>
	<path fill="#61220E" d="M1406.9215,1027.7666c-4.8486,21.257-15.9286,42.24-31.2314,61.8002
		c-1.2817,1.6296-2.5631,3.2559-3.912,4.8485c-13.7781,16.6519-30.6061,32.2321-49.2325,46.0135
		c-22.0214,16.3074-46.5347,30.1226-71.5651,40.2321h-0.0337c-26.4877,10.8026-53.4928,17.4498-78.5605,18.6266
		c-9.8323,0.5173-19.3535,0.1385-28.425-1.1428c-15.3368-2.113-29.4292-6.8571-41.5472-14.6472c0,0-0.0339,0-0.0339-0.0336
		c-4.9535-3.1139-9.5212-6.7151-13.7815-10.9414c-0.3109-0.24-0.5883-0.5173-0.8992-0.8282
		c-0.105-0.1049-0.2098-0.2098-0.3113-0.3483c-8.172-8.3074-14.9241-18.6267-19.8741-31.0895
		c-3.2898-8.2399-5.8156-17.4163-7.4453-27.5967c-0.6558-3.9796-1.1764-8.135-1.5552-12.4629
		c-0.1759-1.87-0.3145-3.7734-0.4159-5.7141c-0.8319-14.8871-0.0709-28.1108,1.9711-39.9176
		c1.2815-7.3403,3.0499-14.1263,5.2644-20.3948c0.4159-1.3153,0.8656-2.5597,1.3828-3.8071
		c7.5842-19.7696,19.3573-34.6227,32.6857-46.5347c7.2355-6.5423,14.958-12.1854,22.7107-17.3113
		c14.3699-9.4838,28.8071-17.1725,40.5468-25.0641c0.0336-0.0374,0.0336-0.0374,0.0336-0.0374
		c5.3998-3.6347,10.1774-7.3404,14.1603-11.3199c18.3494-18.3493-23.0593-156.4954-148.9486-232.4573
		c-0.2739-0.1728-0.5886-0.3466-0.8656-0.519c-3.0804-1.87-6.2314-3.6703-9.4167-5.4372c0.0339-0.1367,0.0714-0.2756,0.1049-0.4141
		c0.2064-0.7963,0.4158-1.5927,0.5883-2.4243c0.3448-1.7311,0.6931-3.4962,0.9705-5.2274c0.1389-0.7624,0.2773-1.5231,0.4158-2.2515
		c0.1388-0.8303,0.3112-1.6619,0.4497-2.4582c0.5173-2.7352,1.1055-5.1934,1.9711-7.1326c0.2438-0.5526,0.4872-1.038,0.7645-1.5231
		c0.1385-0.2081,0.3109-0.4141,0.4494-0.6222c0.6561-0.8655,1.3154-1.5927,1.9715-2.2162c0.5917-0.6239,1.1799-1.1076,1.7682-1.4894
		c0.5546-0.3806,1.1055-0.6575,1.6602-0.83c0.1384-0.0696,0.2433-0.1049,0.3822-0.1049c0.1384-0.0693,0.3109-0.1032,0.4833-0.1032
		c0.2434-0.0356,0.4868-0.0692,0.7271-0.0692c0.3109,0,0.5883,0.0336,0.8656,0.1031c0.382,0.0693,0.7642,0.1741,1.109,0.3126h0.0336
		c0.3483,0.1724,0.6932,0.3466,1.038,0.553c0.0713,0,0.1389,0.0692,0.2098,0.1046c0.2063,0.1388,0.4497,0.3112,0.6558,0.4854
		c1.2478,0.8991,2.4956,2.1452,3.777,3.3574c0.5509,0.5546,1.1394,1.0736,1.7312,1.5927c0,0,0,0.0353,0.0336,0.0353
		c0.2773,0.2081,0.5546,0.4498,0.8319,0.6578c0.2739,0.2417,0.5509,0.4494,0.8282,0.6218c0.5206,0.3823,1.038,0.6932,1.5927,0.9705
		c0.2434,0.1389,0.4867,0.2417,0.764,0.3466c0.4124,0.2081,0.8656,0.3466,1.349,0.4497c0.2772,0.1032,0.5546,0.1385,0.8656,0.1724
		c1.0378,0.1385,2.1808,0.1049,3.3912-0.1724c1.1089-2.3193,1.7686-5.2626,2.3907-8.3091c0.0709-0.2081,0.1045-0.4498,0.1384-0.6932
		c0.1385-0.5546,0.2434-1.1429,0.3448-1.7311c0.3483-1.6262,0.6931-3.2542,1.1428-4.8129c0.2095-0.7963,0.4498-1.557,0.7268-2.2841
		c0.1049-0.3466,0.2098-0.6578,0.3483-0.9705c0.1388-0.3448,0.2773-0.6915,0.4497-1.038c0.105-0.2773,0.2434-0.519,0.3823-0.7624
		c0.135-0.2756,0.2738-0.5529,0.4497-0.7963c0.1385-0.2773,0.3109-0.519,0.4834-0.7607c0.3447-0.485,0.7271-0.9348,1.1428-1.3845
		c0.1385-0.1389,0.2773-0.2434,0.4159-0.3823c0.2063-0.2077,0.4158-0.3801,0.6556-0.5526c0.2098-0.2081,0.4498-0.3466,0.6932-0.4854
		c0.4497-0.277,0.9369-0.519,1.4541-0.7624c0.3109-0.1032,0.6254-0.2078,0.9702-0.3109c0.2437-0.0693,0.4497-0.1389,0.7271-0.1724
		c0.3448-0.1049,0.6931-0.1389,1.0719-0.1741c0.2434-0.0339,0.4868-0.0693,0.7642-0.0693c0.7267-0.0696,1.5212-0.0339,2.3533,0.0353
		c0.2434,0.0339,0.5208,0.0692,0.7606,0.1385c0.2095,0.0339,0.382,0.0696,0.5543,0.1388c0.1725,0.0693,0.3483,0.1368,0.5547,0.2064
		c0.3448,0.1385,0.7271,0.3127,1.0719,0.4851c0.3818,0.2081,0.7267,0.4158,1.109,0.6575c1.8021,1.1429,3.5671,2.6663,5.3319,3.8445
		c0.0338,0,0.0338,0,0.0338,0c0.382,0.2417,0.7642,0.4498,1.109,0.6222c0.3822,0.2077,0.7606,0.3801,1.1429,0.519
		c0.2059,0.1049,0.4497,0.1741,0.6931,0.2078c0.1385,0.0696,0.2773,0.1049,0.4497,0.1049c0.311,0.0693,0.6218,0.1032,0.9331,0.1032
		c0.2434,0,0.4868-0.0339,0.7268-0.0693c0.3147-0.0339,0.6256-0.1031,0.903-0.2081c0.1384,0,0.2772-0.0336,0.3787-0.1031
		c0.7977-0.2417,1.491-0.5883,2.147-1.0733c0.2773-0.1724,0.5208-0.3806,0.7607-0.6239c0.5883-0.4837,1.1089-1.1072,1.5587-1.7651
		c0.1049-0.1385,0.2097-0.2417,0.2773-0.3802c0.3483-0.4854,0.6221-0.9705,0.899-1.4894c0.4163-0.7624,0.7981-1.5587,1.1429-2.3886
		c0.3483-0.7963,0.6595-1.6284,0.9705-2.4583c0.6931-1.8696,1.3153-3.7056,1.9746-5.1934c0.3112,0.3109,0.656,0.6575,1.038,1.038
		c0.3822,0.3466,0.7606,0.7624,1.1769,1.1765c0.4158,0.4162,0.8315,0.8656,1.2473,1.351c0.3113,0.3466,0.6561,0.6931,0.967,1.0733
		c1.8696,2.0424,3.8446,4.3635,5.5757,6.5779c0.3448,0.4515,0.6931,0.9012,1.038,1.351c1.2139,1.6279,2.2518,3.1849,2.9786,4.4663
		c9.3827-7.1323,17.2404-14.4034,23.8876-21.536c-1.0715-1.8344-1.8662-3.1497-2.3533-3.9813
		c1.0044-0.2081,2.0084-0.4158,2.9449-0.519c0.6561-0.1032,1.3153-0.1724,1.9375-0.2417c0.6222-0.0696,1.2478-0.1049,1.8361-0.1049
		c1.1429-1.3506,2.2484-2.666,3.3235-3.9813c149.155,14.8871,222.0015,169.4433,254.2,286.9881
		c0.277,0.9334,0.5172,1.87,0.7606,2.7691c6.5424,24.1684,11.3573,46.7071,14.7147,66.0266
		c0.4159,2.2487,0.7981,4.4667,1.1429,6.6475c0.1045,0.7267,0.2433,1.4199,0.3108,2.147
		C1410.4852,1002.9084,1409.7582,1015.3713,1406.9215,1027.7666z"/>
	<path fill="#7B2216" d="M1647.6069,1220.9637c17.3788-134.5144-42.8525-253.1617-134.5215-265.0057
		c-91.676-11.8441-180.079,87.6051-197.4579,222.1196c-17.3722,134.5183,42.8525,253.1652,134.5283,265.0093
		C1541.8317,1454.9309,1630.2277,1355.4821,1647.6069,1220.9637z"/>
	<linearGradient id="SVGID_2_" gradientUnits="userSpaceOnUse" x1="1383.2065" y1="1199.5206" x2="1594.9742" y2="1199.5206">
		<stop  offset="0" style="stop-color:#FFFFFF"/>
		<stop  offset="1" style="stop-color:#BE6328"/>
	</linearGradient>
	<path fill="url(#SVGID_2_)" d="M1593.4244,1210.9932c9.9131-85.1979-28.7667-159.4069-86.3879-165.7428
		c-57.6177-6.3433-112.3683,57.5973-122.2819,142.7982c-9.9066,85.2045,28.7666,159.41,86.3878,165.7428
		C1528.7672,1360.1309,1583.5109,1296.1971,1593.4244,1210.9932z"/>
	<path fill="#7B2216" d="M115.8319,1358.8799c-58.6997-120.4829-40.0696-249.9022,41.6016-289.0623
		c81.676-39.1604,195.4729,26.775,254.1709,147.2615c58.6945,120.4895,40.0713,249.9088-41.6064,289.0692
		C288.3251,1545.3083,174.5316,1479.3732,115.8319,1358.8799z"/>
	<linearGradient id="SVGID_3_" gradientUnits="userSpaceOnUse" x1="135.7802" y1="1296.2052" x2="361.4895" y2="1296.2052">
		<stop  offset="0" style="stop-color:#FFFFFF"/>
		<stop  offset="1" style="stop-color:#BE6328"/>
	</linearGradient>
	<path fill="url(#SVGID_3_)" d="M150.3515,1333.0413c-30.6127-80.1224-11.4196-161.5769,42.8577-181.9213
		c54.2822-20.3508,123.1014,28.114,153.7124,108.2435c30.6061,80.1326,11.4182,161.5839-42.8622,181.9281
		C249.7768,1461.6392,180.9611,1413.1742,150.3515,1333.0413z"/>
	<path fill="#61220E" d="M750.8884,1126.9617c-0.6221,35.2449-28.633,75.1289-75.4768,101.062
		c-37.4968,20.7737-87.0419,32.6143-144.2033,25.967c-50.4464-5.8495-152.0627-50.7911-180.8005-92.6497l-0.519-0.7977
		l-0.1032-0.1389c-181.1471-265.1037,98.7087-449.5746,157.9831-484.5778c0.2773-0.1738,0.5883-0.3463,0.8656-0.5204
		c0.0336-0.0339,0.1032-0.0696,0.1385-0.0696c5.7816-3.4266,9.2086-5.2609,9.6244-5.4691c0.0356-0.0353,0.0356-0.0353,0.0356-0.0353
		l1.1426,0.3466l8.2399,2.4582l2.3533,0.7267c0,0,84.4452,15.2001,138.2845,25.5512c1.1412,0.2081,2.2501,0.4158,3.3577,0.6239
		c31.8536,6.1282,51.5536,10.3176,33.4106,8.1011c-9.1054-1.1072-18.3158-0.1385-27.4905,2.5967
		c-3.0125,0.9012-6.059,1.9745-9.0715,3.2206c-1.8696,0.7963-3.7379,1.6619-5.6075,2.5967
		c-1.7311,0.8299-3.4623,1.7311-5.1934,2.6999c-2.874,1.5923-5.7141,3.3234-8.5525,5.2287
		c-0.4498,0.2773-0.8655,0.5546-1.3153,0.8655c-0.2081,0.1389-0.4158,0.2773-0.6239,0.4498
		c-90.7105,62.0436-167.8153,262.1639-116.1586,250.8406c22.7465-4.9836,43.3477-6.8871,61.9404-6.2989
		C714.0848,973.4792,751.6848,1081.6752,750.8884,1126.9617z"/>
	<path fill="#7B2216" d="M217.112,1067.9916c-5.2069-31.4783-31.6272-53.3204-59.0127-48.7897
		c-27.3852,4.5273-45.3644,33.7167-40.1575,65.1915c5.2052,31.4717,31.6254,53.3169,59.011,48.7861
		C204.338,1128.6488,222.3172,1099.4633,217.112,1067.9916z"/>
	<path fill="#7B2216" d="M320.7738,1050.3219c-5.2069-31.4783-31.6271-53.3204-59.0123-48.7897
		c-27.3855,4.5273-45.3648,33.7167-40.1579,65.1914c5.2055,31.4714,31.6254,53.317,59.011,48.7863
		C307.9998,1110.9791,325.979,1081.7932,320.7738,1050.3219z"/>
	<path fill="#7B2216" d="M1560.7998,969.716c4.3887-31.6036-14.3428-60.3093-41.8447-64.1265
		c-27.4886-3.8175-53.3339,18.7077-57.7157,50.3075c-4.3888,31.5933,14.3424,60.3058,41.8378,64.123
		C1530.5724,1023.8341,1556.411,1001.3124,1560.7998,969.716z"/>
	<path fill="#7B2216" d="M1459.9205,969.0803c-0.6696-31.901-23.7017-57.2833-51.4607-56.7016
		c-27.7456,0.5782-49.7028,26.907-49.0331,58.8011c0.6627,31.8906,23.7017,57.2795,51.4539,56.7016
		C1438.6332,1027.2964,1460.5833,1000.971,1459.9205,969.0803z"/>
	<path fill="#7B2216" d="M131.174,1122.8502c-5.2069-31.4783-31.6272-53.3201-59.0127-48.7897
		c-27.3852,4.5277-45.3644,33.7167-40.1575,65.1915c5.2052,31.4717,31.6254,53.3173,59.011,48.7865
		C118.3999,1183.5078,136.3791,1154.3219,131.174,1122.8502z"/>
	<path fill="#7B2216" d="M1661.4625,1007.8481c4.3888-31.6033-14.3424-60.309-41.8446-64.1265
		c-27.4888-3.8171-53.3339,18.7081-57.7157,50.3079c-4.3888,31.5932,14.3424,60.3058,41.838,64.123
		C1631.2355,1061.9666,1657.0741,1039.4448,1661.4625,1007.8481z"/>
	<path fill="#61220E" d="M771.6385,1149.3516c0-21.7168-20.4475-39.3225-45.6705-39.3225
		c-25.2234,0-45.6708,17.6057-45.6708,39.3225c0,21.7136,20.4474,39.3228,45.6708,39.3228
		C751.191,1188.6743,771.6385,1171.0652,771.6385,1149.3516z"/>
	<path fill="#61220E" d="M1128.4215,1133.5314c0-21.7172-20.4492-39.3224-45.6722-39.3224
		c-25.2233,0-45.6721,17.6052-45.6721,39.3224c0,21.7136,20.4489,39.3224,45.6721,39.3224
		C1107.9723,1172.8538,1128.4215,1155.245,1128.4215,1133.5314z"/>
	<path fill="#61220E" d="M725.9681,1222.6814c0-21.7168-20.4475-39.3224-45.6708-39.3224c-25.223,0-45.6705,17.6056-45.6705,39.3224
		c0,21.7136,20.4475,39.3224,45.6705,39.3224C705.5206,1262.0038,725.9681,1244.395,725.9681,1222.6814z"/>
	<path fill="#61220E" d="M1174.0938,1188.6334c0-21.7168-20.4489-39.3224-45.6722-39.3224s-45.6722,17.6056-45.6722,39.3224
		c0,21.7136,20.4489,39.3228,45.6722,39.3228S1174.0938,1210.347,1174.0938,1188.6334z"/>
	<path fill="#61220E" d="M783.2728,1073.4658c0-21.7172-20.4471-39.3228-45.6705-39.3228
		c-25.2233,0-45.6705,17.6056-45.6705,39.3228c0,21.7136,20.4471,39.3224,45.6705,39.3224
		C762.8257,1112.7882,783.2728,1095.1794,783.2728,1073.4658z"/>
	<path fill="#61220E" d="M750.8902,1034.1431c0-21.7168-20.4475-39.3224-45.6705-39.3224
		c-25.2233,0-45.6705,17.6057-45.6705,39.3224c0,21.7136,20.4471,39.3228,45.6705,39.3228
		C730.4427,1073.4658,750.8902,1055.8567,750.8902,1034.1431z"/>
	<path fill="#61220E" d="M1109.6429,1073.4658c0-21.7172-20.4493-39.3228-45.6724-39.3228
		c-25.2233,0-45.6722,17.6056-45.6722,39.3228c0,21.7136,20.4489,39.3224,45.6722,39.3224
		C1089.1936,1112.7882,1109.6429,1095.1794,1109.6429,1073.4658z"/>
	<path fill="#61220E" d="M1128.4215,1020.4428c0-21.7167-20.4492-39.3224-45.6722-39.3224
		c-25.2233,0-45.6721,17.6057-45.6721,39.3224c0,21.7137,20.4489,39.3224,45.6721,39.3224
		C1107.9723,1059.7653,1128.4215,1042.1565,1128.4215,1020.4428z"/>
	<path fill="#E5AF23" d="M1222.9644,1436.6426c-19.7726-9.5282-76.5348-6.3024-97.7412,2.7892
		c-7.2694,3.1208-23.1205,10.0894-25.2504,19.4011c-5.5518,24.2526,17.9265,11.4689,23.4377,24.5978
		c21.4838,51.1799-144.9417,24.9796-151.7243,62.1045c-7.885,43.177,166.1212,43.214,196.8152,41.8817
		c26.6093-1.153,68.3799-2.2584,78.8816-31.2618c11.5634-31.9551-32.4791-53.0361,20.9426-58.0776
		c31.093-2.9346,73.9656,9.4268,102.1235-5.1255c39.025-20.1653,5.2474-39.4613-24.5607-42.4128
		c-16.3713-1.6232-35.5354,3.293-50.5477-5.6771c-13.0376-7.7866-8.8112-22.6671-21.9772-30.6837
		C1256.823,1404.1058,1217.2842,1412.3491,1222.9644,1436.6426L1222.9644,1436.6426z"/>
	<path fill="#E5AF23" d="M1390.4927,1537.1599c-31.1674-7.2762-41.9935,32.4114-11.6041,33.9161
		c1.6837,24.0364-60.049,19.5261-24.8376,49.2899c21.1794,17.9065,90.6952,8.7371,112.5034-1.7041
		c36.8745-17.6493,26.163-44.2825-9.0546-55.7412c-16.6691-5.4233-19.996-9.7712-30.6398-17.3755
		c-12.4087-8.8551-16.2767-19.4583-36.3673-11.1779V1537.1599z"/>
	<path fill="#E5AF23" d="M1063.9298,983.9435c-6.5388,9.5517-12.2329,28.5602-6.6067,39.7012
		c7.1952,14.2684,15.3503,2.9586,23.4313-3.1545c10.7721,7.2255,11.8406,15.2219,18.833,25.3618
		c5.085,7.3809,11.4348,14.1129,21.0305,10.5219c23.979-8.9701,6.7692-61.3265,37.8821-53.5669
		c15.7762,3.9321,37.3549,26.8932,47.3224,0.2569c6.9785-18.6367-8.0336-43.8466-22.2953-55.5587
		c-11.1035-9.1224-16.3783-8.2329-29.3684-3.151c-10.069,3.939-19.2793,6.9685-28.3408,12.101
		c-9.4738,5.3589-17.6763,10.8601-26.6498,16.9395c-6.891,4.6727-7.6007,5.2509-16.3513,5.3015
		c-6.1265,0.037-11.5972-0.3923-16.7837,3.1479L1063.9298,983.9435z"/>
	<path fill="#E5AF23" d="M1141.5809,1227.9562c10.042-14.8501-7.6277-54.8047,8.6892-65.8171
		c15.4518-10.4272,11.158,39.6642,37.1993,7.7832c7.087-8.6758,16.0605-15.8572,25.2909-6.0316
		c7.0056,7.4653,5.7682,15.2216,19.0696,9.2405c7.1748-3.2289,21.6122-12.6826,19.9351,4.4597
		c-0.9401,9.6293-15.1544,13.9166-24.1075,16.5538c-18.6501,5.4946-36.8541,6.7286-56.3024,7.7361
		c2.2249,8.8281-18.2174,25.5513-26.6232,26.0754H1141.5809z"/>
	<path fill="#E5AF23" d="M524.8128,975.9034c-8.2094,13.1355-14.9207,25.5477-19.8606,40.5259
		c-3.6651,11.1139-10.7164,45.4594,5.442,51.4812c12.647,4.7133,26.574-19.5463,32.3456-27.8671
		c9.7664-14.0825,20.7009-29.1454,40.4702-26.4033c0.4767,9.3959-3.4571,27.999,1.8073,35.6472
		c8.3766,12.1685,17.2726-4.2129,22.6672-10.6437c5.8882-7.0194,17.5582-17.8931,25.5038-7.4893
		c4.9753,6.5153-0.0305,26.5823,9.7764,30.1528c5.2138,1.8967,18.3088-12.713,22.1869-17.1389
		c7.7278-8.8146,14.1212-20.8414,28.8328-16.1113c15.8254,5.0889,8.3209,55.4067,27.245,28.5333
		c3.5568-5.0511,6.5662-14.8701,11.3521-18.6467c5.6161-4.4293,8.5898-1.995,15.5193-1.4064
		c10.8705-31.0051-46.2723-61.239-67.5361-37.7911c-4.431-17.6462-61.1157-27.6373-76.1921-28.3675
		c-26.9794-1.3052-53.9339-3.6416-78.4537,5.5248H524.8128z"/>
	<path fill="#E5AF23" d="M499.1078,1162.5212c-2.1199-8.7301-10.3342-19.002-13.3453-28.892
		c-2.6507-8.7096-6.6829-29.6322-20.0279-24.8241c-22.5809,8.1284-5.1481,52.4344-7.0904,68.0656
		c-16.1027,2.0184-16.39-8.8687-21.5582-20.9935c-4.9784-11.6752-11.1593-19.4009-21.4093-7.8136
		c-8.3901,9.4873-6.2785,29.5203-19.7762,23.3568c-9.7477-4.4532-8.9919-17.3523-18.8801-8.8351
		c-17.2691,14.8771,9.8356,40.4484,21.8809,49.1885c18.6215,13.5178,39.9023,19.2084,61.2441,27.5327
		c21.2435,8.2904,45.7837,9.8018,68.1583,14.7046c23.7425,5.2001,45.3038,4.9871,69.7544,4.1755
		c10.1265-0.3348,23.3028-0.9805,32.3168-5.5923c12.1245-6.2043,4.7672-10.813,1.1089-22.1904
		c-3.6295-11.2928-2.8636-18.1024-15.5158-12.0199c-8.468,4.0709-17.7002,14.2513-25.9113,3.0634
		c-8.0335-10.948,0.8673-26.6262,3.8816-36.6786c6.6472-22.163-23.4687-14.5658-35.5645-8.6522
		c-11.4418,5.5923-30.3846,21.984-34.7934,3.0905c-3.2529-13.9336-3.0482-30.2814-22.2479-16.6858H499.1078z"/>
	<path fill="#61220E" d="M1099.0902,160.6059c0,19.1457-6.6472,36.457-17.3114,48.7491c-2.1469-2.874-4.3278-5.6788-6.5797-8.414
		c-21.8116-27.2484-45.8041-48.2994-70.8377-64.2245c-3.7396-2.355-7.4418-4.6052-11.2188-6.7521
		c9.2474-21.8473,28.114-36.8036,49.8921-36.8036C1073.9888,93.1608,1099.0902,123.3864,1099.0902,160.6059z"/>
	<path fill="#AF4725" d="M1099.0902,160.6059c0,19.1457-6.6472,36.457-17.3114,48.7491c-2.1469-2.874-4.3278-5.6788-6.5797-8.414
		c-21.8116-27.2484-45.8041-48.2994-70.8377-64.2245c-3.7396-2.355-7.4418-4.6052-11.2188-6.7521
		c9.2474-21.8473,28.114-36.8036,49.8921-36.8036C1073.9888,93.1608,1099.0902,123.3864,1099.0902,160.6059z"/>
	<linearGradient id="SVGID_4_" gradientUnits="userSpaceOnUse" x1="1003.7392" y1="155.1173" x2="1088.4939" y2="155.1173">
		<stop  offset="0" style="stop-color:#FFFFFF"/>
		<stop  offset="1" style="stop-color:#BE6328"/>
	</linearGradient>
	<path fill="url(#SVGID_4_)" d="M1088.4939,162.5787c0,14.992-5.0889,28.5994-13.2948,38.3623
		c-0.1724,0.2417-0.3784,0.4497-0.5543,0.6575c-21.3958-28.4942-45.6317-49.0954-70.9056-63.5331
		c0.2061-0.4494,0.3819-0.8992,0.6222-1.3489c7.5837-16.7231,22.3323-28.0804,39.2989-28.0804
		C1068.4135,108.6361,1088.4939,132.8028,1088.4939,162.5787z"/>
	<path fill="#A05124" d="M1047.6733,637.5677c-8.8616,6.5441-18.6266,12.395-29.152,17.3114
		c-0.1014,0.1046-0.1724,0.1385-0.2773,0.1385c-7.026,3.3591-14.3664,6.3024-22.0176,8.7942
		c-0.6595,0.242-1.3153,0.4497-1.9749,0.6578c-0.0675,0.0353-0.1385,0.0353-0.206,0.0693
		c-7.3743,2.3194-14.9919,4.2586-22.853,5.7816c-5.6771,1.109-11.4249,2.0085-17.3114,2.666
		c-7.5128,0.8656-15.1644,1.3171-22.9545,1.3846c-0.7271,0.0356-1.4877,0.0356-2.2145,0.0356c-0.9369,0-1.9035,0-2.8404-0.0356
		c-29.7063-0.3448-57.5769-6.5084-81.7083-17.0341l79.5987-7.7208l1.6262-0.1724l43.9006-4.2582h0.1724l8.2398-0.832l3.6008-0.3448
		h0.0374l8.2735-0.7981l3.1174-0.3109c0.0339,0.0353,0.0339,0,0.0339,0l28.1815-2.7352l1.1089-0.1032L1047.6733,637.5677z"/>
	<path fill="#61220E" d="M969.3225,418.8224c-0.4494-0.0696-0.8992-0.1741-1.3489-0.2434c0.4497,0.0692,0.933,0.1738,1.3863,0.277
		L969.3225,418.8224z"/>
	<path fill="#61220E" d="M638.8549,708.4478c-0.0353-0.0336-0.1049-0.0336-0.1741-0.0336l-101.0281-30.4708l-11.7374-3.5302
		c0,0,0,0-0.0356,0.0339c-0.4141,0.2098-3.9117,2.076-9.7629,5.5383c4.3635,2.7051,8.933,5.3353,13.7459,7.8646
		c2.5275,1.3458,5.1241,2.6306,7.7901,3.9085l97.948,29.5377l3.0801,0.933c0.0692,0,0.1388,0,0.1741,0.0339
		c0.8655,0.1351,1.7311,0.277,2.6306,0.4124c0.3466-0.5546,0.6575-1.0684,0.9702-1.5892c3.8767-6.2009,6.0929-9.6971,6.0929-9.6971
		L638.8549,708.4478z"/>
	<path fill="#61220E" d="M838.0352,711.2103c-1.8361-4.2925-3.9473-8.3784-7.376-11.2863
		c-21.9161-18.5588-32.3708,25.6897-50.098,0.0692c-4.7437-6.8906-10.0756-21.9162-21.3975-17.7625
		c-8.4476,3.1171-8.5508,17.658-19.8724,17.7625c-20.8093,0.1724-17.9706-37.3579-35.3498-43.2784
		c-12.5338-4.2939-21.4667,11.009-27.0403,26.0702c-2.2518,6.0251-3.9138,11.9795-5.0902,16.6539
		c-0.519,2.147-0.9352,3.9813-1.2461,5.4351c-0.2081,0.6575-0.4158,1.317-0.6931,1.9392c-0.1385,0.4494-0.3466,0.8655-0.5529,1.2814
		c0,0.0336-0.0353,0.0336-0.0353,0.0693c-0.1389,0.3805-0.3466,0.7624-0.519,1.1072c0,0.0693-0.0357,0.1049-0.0693,0.1742v-1.4538
		c0-1.2814-0.0356-2.6324-0.0696-3.9474c-0.0353-1.7668-0.1046-3.4979-0.1724-5.2291c-0.2434-5.5382-0.7285-10.6977-1.5587-14.0215
		c-0.2077-0.7624-0.4158-1.3846-0.6235-1.9392c-4.9857-12.0484-11.5637-11.8067-21.2926-9.5549
		c-1.6959,0.4141-3.5319,0.8992-5.4708,1.3489c-6.9246,1.6619-10.7334,0.2773-12.8094-3.0108
		c-2.9789-4.6744-2.3211-13.1916-1.8004-21.8473c0.0336-0.485,0.0336-0.9701,0.0692-1.4538
		c0.311-5.7477,0.4141-11.4958-0.7963-16.0653c-0.7271-2.8047-1.9392-5.1598-3.9138-6.8553
		c-1.1765-1.0397-2.6302-1.8361-4.397-2.355c-7.3387-2.1113-19.3534,6.9246-30.3641,12.9143
		c-9.0362,4.9517-17.3806,7.895-21.9841,1.1429c-0.6239-0.8995-1.1785-1.9731-1.6619-3.2546
		c-0.4158-1.0733-0.6592-2.1808-0.8317-3.3234c-0.4854-3.0464-0.2773-6.3719,0.1385-9.7646
		c0.8317-6.6812,2.3886-13.6057,0.7271-19.423c-0.7271-2.5275-1.9731-4.431-3.5655-5.8156
		c-5.5756-4.7793-15.477-3.2206-22.574,0.553c-4.9857,2.632-9.5569,5.8509-13.7798,9.5212
		c-0.2434,0.1385-0.4515,0.3466-0.6578,0.519c-0.8316,0.6931-1.6633,1.4199-2.4596,2.1823
		c-0.2064,0.1728-0.3805,0.3805-0.5883,0.5529c-12.1519,11.3912-21.7424,25.8639-31.0912,39.0894v-0.6918
		c0,4.2925-4.9857,3.8075-4.2925,6.8892c0.0339,0.1049,0.0696,0.2081,0.1388,0.3109c7.5128,7.3068,16.0992,14.2653,25.759,20.7737
		c2.1117,1.4202,4.2586,2.8404,6.4748,4.191c0.0339,0.0339,0.0678,0.0339,0.1031,0.0693c0.2416,0.1724,0.519,0.3448,0.7624,0.4836
		c0,0,0.0339,0,0.0339-0.0339c0.7271-0.4158,1.4202-0.8316,2.0777-1.2121c0.6575-0.3805,1.2814-0.7271,1.8343-1.038
		c0.2773-0.1741,0.519-0.3126,0.7624-0.4515c0.2773-0.1724,0.553-0.3448,0.83-0.4833c1.2478-0.7271,2.2518-1.2478,2.9432-1.6279
		c0.2081-0.1032,0.3466-0.2081,0.4854-0.2773c0.0336,0,0.0693-0.0339,0.1032-0.0339c0.1741-0.1049,0.277-0.1385,0.3819-0.2434
		c0.1724-0.0339,0.2416-0.1031,0.3112-0.1385c0.0336-0.0339,0.0336-0.0339,0.0336-0.0339l11.7378,3.5316l101.0294,30.4673
		c0.0696,0,0.1389,0,0.1724,0.0356l9.6954,2.9433c0,0-2.2162,3.4958-6.0942,9.6937c-0.3113,0.519-0.6239,1.038-0.9688,1.5923
		c0.3448,0.0696,0.6575,0.1049,1.004,0.1724c2.2501,0.3466,4.5342,0.6932,6.82,1.0397c6.1974,0.9688,12.5338,1.8007,19.0778,2.5614
		c22.0889,2.5627,46.0814,4.2586,72.2226,4.8821c0.6575,0.0356,1.2814,0.0356,1.8696,0.0356
		c0.6915,0.0339,1.3493,0.0339,2.0085,0.0339c5.5383,0.1028,11.1475,0.1724,16.8599,0.1724
		c14.2313,0.0353,27.9755-0.1371,41.1672-0.4837c0.5543,0,1.0733,0,1.5923-0.0353c15.2336-0.4162,29.8098-1.0737,43.7281-1.9392
		C842.916,724.6789,840.8044,717.6851,838.0352,711.2103z M909.3923,714.1872c-1.2104-1.4874-2.7355-3.4266-5.0209-2.9416
		c-2.0085,0.4144-3.114,3.5655-5.0549,3.8767c-2.4578,0.4158-2.8401-2.4921-4.2939-3.8767
		c-1.9374-1.8004-4.8115-2.113-6.8196-0.3819c-1.87,1.628-2.1134,3.8781-4.4328,5.2627c-2.0424,1.1782-3.9795,1.3506-5.6092-0.519
		c-2.3873-2.6999-4.5342-9.6937-9.2069-4.9854l-10.975,17.7272c1.0716-0.1389,13.2944-1.0397,26.4168-2.1809
		c0.1011-0.0356,0.1724-0.0356,0.277-0.0356c10.7995-1.0733,21.1524-2.2855,31.0895-3.6347c0.1389,0,0.2773-0.0353,0.3822-0.0692
		C914.3423,719.5887,911.5053,716.8535,909.3923,714.1872z M1007.269,683.1655c-1.2104,0.3819-2.4208,0.7624-3.6346,1.1429
		c0.798,0.4158,1.5926,0.796,2.3903,1.2121c0.0339,0,0.1014,0.0353,0.1389,0.0693c0.4158-0.7963,0.8282-1.628,1.244-2.4582
		C1007.3739,683.1317,1007.3064,683.1655,1007.269,683.1655z M1103.0361,651.8327c-0.3448-0.4498-0.6931-0.8995-1.038-1.351
		c-1.7311-2.2145-3.7061-4.5356-5.5757-6.5779c-0.3109-0.3802-0.6558-0.7267-0.967-1.0733
		c-0.4158-0.4854-0.8315-0.9348-1.2473-1.351c-0.4163-0.4141-0.7947-0.8299-1.1769-1.1765c-0.382-0.3805-0.7268-0.7271-1.038-1.038
		c-0.6593,1.4878-1.2815,3.3238-1.9746,5.1934c-0.3109,0.8299-0.6222,1.6619-0.9705,2.4583
		c-0.3448,0.8299-0.7267,1.6262-1.1429,2.3886c-0.277,0.519-0.5508,1.004-0.899,1.4894c-0.0676,0.1385-0.1725,0.2417-0.2773,0.3802
		c-0.4498,0.6578-0.9705,1.2814-1.5587,1.7651c-0.2063,0.2433-0.4834,0.4515-0.7607,0.6239c-0.656,0.485-1.3492,0.8316-2.147,1.0733
		c-0.1014,0.0696-0.2402,0.1031-0.3787,0.1031c-0.2773,0.1049-0.5883,0.1741-0.903,0.2081c-0.24,0.0353-0.4834,0.0693-0.7268,0.0693
		c-0.3113,0-0.6221-0.0339-0.9331-0.1032c-0.1724,0-0.3112-0.0353-0.4497-0.1049c-0.2434-0.0336-0.4872-0.1028-0.6931-0.2078
		c-0.3823-0.1389-0.7607-0.3113-1.1429-0.519c-0.3448-0.1724-0.7271-0.3805-1.109-0.6222c0,0,0,0-0.0338,0
		c-1.7648-1.1782-3.5298-2.7016-5.3319-3.8445c-0.3823-0.2417-0.7272-0.4494-1.109-0.6575
		c-0.3448-0.1724-0.7271-0.3466-1.0719-0.4851c-0.2064-0.0696-0.3822-0.1371-0.5547-0.2064
		c-0.1724-0.0692-0.3448-0.1049-0.5543-0.1388c-0.2399-0.0693-0.5172-0.1046-0.7606-0.1385
		c-0.832-0.0693-1.6266-0.1049-2.3533-0.0353c-0.2773,0-0.5208,0.0353-0.7642,0.0693c-0.3788,0.0353-0.7271,0.0692-1.0719,0.1741
		c-0.2773,0.0336-0.4834,0.1031-0.7271,0.1724c-0.3448,0.1031-0.6593,0.2077-0.9702,0.3109
		c-0.5172,0.2434-1.0044,0.4854-1.4541,0.7624c-0.2434,0.1389-0.4834,0.2773-0.6932,0.4854
		c-0.2399,0.1724-0.4493,0.3448-0.6556,0.5526c-0.1385,0.1389-0.2773,0.2434-0.4159,0.3823
		c-0.4158,0.4497-0.7981,0.8995-1.1428,1.3845c-0.1725,0.2417-0.3448,0.4833-0.4834,0.7607
		c-0.1759,0.2434-0.3147,0.5208-0.4497,0.7963c-0.1389,0.2434-0.2773,0.485-0.3823,0.7624
		c-0.1724,0.3466-0.3109,0.6932-0.4497,1.038c-0.1384,0.3126-0.2434,0.6239-0.3483,0.9705
		c-0.277,0.7271-0.5173,1.4877-0.7268,2.2841c-0.4497,1.5587-0.7946,3.1866-1.1428,4.8129
		c-0.1014,0.5883-0.2063,1.1765-0.3448,1.7311c-0.0339,0.2434-0.0675,0.4851-0.1384,0.6932
		c-0.6222,3.0464-1.2819,5.9897-2.3907,8.3091c-1.2104,0.2773-2.3534,0.3109-3.3912,0.1724
		c-0.311-0.0339-0.5884-0.0692-0.8656-0.1724c-0.4834-0.1031-0.9366-0.2416-1.349-0.4497c-0.2773-0.1049-0.5206-0.2078-0.764-0.3466
		c-0.5547-0.2773-1.072-0.5882-1.5927-0.9705c-0.2773-0.1724-0.5543-0.3801-0.8282-0.6218
		c-0.2773-0.2081-0.5546-0.4498-0.8319-0.6578c-0.0336,0-0.0336-0.0353-0.0336-0.0353c-0.5918-0.519-1.1803-1.038-1.7312-1.5927
		c-1.2814-1.2122-2.5292-2.4583-3.777-3.3574c-0.2061-0.1742-0.4495-0.3466-0.6558-0.4854
		c-0.0709-0.0353-0.1385-0.1046-0.2098-0.1046c-0.3447-0.2064-0.6897-0.3806-1.038-0.553h-0.0336
		c-0.3448-0.1385-0.7271-0.2433-1.109-0.3126c-0.2773-0.0696-0.5547-0.1031-0.8656-0.1031c-0.2402,0-0.4836,0.0336-0.7271,0.0692
		c-0.1724,0-0.3448,0.0339-0.4833,0.1032c-0.1389,0-0.2438,0.0353-0.3822,0.1049c-0.5547,0.1724-1.1056,0.4494-1.6602,0.83
		c-0.5883,0.3818-1.1765,0.8655-1.7682,1.4894c-0.6561,0.6235-1.3154,1.3506-1.9715,2.2162
		c-0.1385,0.2081-0.3109,0.4141-0.4494,0.6222c-0.2773,0.485-0.5207,0.9705-0.7645,1.5231
		c-0.8655,1.9392-1.4538,4.3974-1.9711,7.1326c-0.1385,0.7963-0.3109,1.6279-0.4497,2.4582
		c-0.1385,0.7285-0.277,1.4891-0.4158,2.2515c-0.2773,1.7311-0.6257,3.4962-0.9705,5.2274
		c-0.1724,0.8316-0.3819,1.6279-0.5883,2.4243c-0.0336,0.1385-0.071,0.2773-0.1049,0.4141
		c-0.277,1.0737-0.5883,2.0778-0.9331,3.0482c-0.2433,0.6222-0.4868,1.2461-0.7641,1.8343
		c-0.1724,0.4158-0.3788,0.8317-0.5883,1.2461c-0.0339,0.0692-0.0675,0.1046-0.1014,0.1741
		c-0.2434,0.4494-0.5207,0.8992-0.798,1.2814c-0.8317,1.2457-1.8361,2.2502-3.0464,2.9769l-3.0461,0.9352
		c0.9702-0.2773,1.9745-0.5886,2.9416-0.8655c1.004-0.3113,1.9745-0.6239,2.945-0.9352c0.0336,0,0.0675,0,0.1011-0.0353
		c4.3652-1.3845,8.6221-2.7691,12.7065-4.2229c8.5542-2.9772,16.5167-6.0947,23.9956-9.3135
		c17.5516-7.5485,32.3033-15.7187,44.7325-24.1328c0.277-0.1385,0.5543-0.3466,0.8656-0.5882
		c1.3489-0.8995,2.6642-1.87,4.0166-2.8387c1.7311-1.2474,3.4623-2.5271,5.1934-3.8085c0.0675-0.0696,0.1014-0.1049,0.1725-0.1389
		C1105.288,655.0176,1104.25,653.4606,1103.0361,651.8327z"/>
	<path fill="#61220E" d="M668.4531,698.815c0.1724,3.4283,0.242,7.0295,0.242,10.4561v0.1742
		c0.0336-0.0693,0.0693-0.1049,0.0693-0.1742c0.6914-1.3153,1.3153-2.7691,1.8004-4.397c0.3109-1.4539,0.7271-3.2881,1.2461-5.4351
		C670.7032,699.2308,669.5943,699.0231,668.4531,698.815z"/>
	<path fill="#61220E" d="M1004.189,290.0252c-45.0435,0-81.5698,39.2615-81.5698,87.664c0,13.3994,2.8031,26.1055,7.7902,37.4628
		c12.7737,0.0692,25.2399,1.2461,37.2194,3.3574c0.1014,0.0357,0.2399,0.0357,0.3448,0.0696
		c0.4497,0.0692,0.8995,0.1738,1.3489,0.2434l0.0374,0.0336c1.4167,0.2773,2.8366,0.5547,4.2568,0.832
		c1.038,0.206,2.0421,0.4141,3.08,0.6575c1.4202,0.3112,2.874,0.6578,4.2943,1.0041c1.7311,0.4144,3.4623,0.8656,5.1595,1.3153
		c2.4918,0.6914,4.95,1.4202,7.4078,2.1809c8.2772,2.5967,16.2398,5.6788,23.8201,9.1747c2.3907,1.1429,4.7811,2.3194,7.1004,3.4979
		c2.3534,1.2457,4.6727,2.4918,6.9246,3.8089h0.0339c0.0336,0.0336,0.0336,0.0336,0.0675,0.0336
		c0.071,0.0696,0.1385,0.0696,0.2098,0.1388c5.5718,3.2203,10.8701,6.7165,15.8572,10.4204
		c22.9546-15.4414,38.2239-42.9318,38.2239-74.2308C1085.7958,329.2867,1049.2695,290.0252,1004.189,290.0252z M995.1171,223.3765
		c-10.0046-3.7735-20.0466-6.7168-28.32-7.7209c-6.9958-0.8316-12.7065-0.2773-16.03,2.2854
		c-4.1893,3.2545,1.0716,21.2573,1.0716,21.2573s61.2493,11.1492,85.8636,11.9795
		C1051.7953,251.6629,1023.6133,234.1099,995.1171,223.3765z M789.3893,305.1557c-45.0788,0-81.6051,39.2615-81.6051,87.6997
		c0,45.4236,32.0953,82.748,73.2607,87.2482h0.0353c3.0464-4.0152,6.3702-7.929,9.9709-11.6682
		c1.0397-1.1076,2.1116-2.1809,3.2206-3.2545c0.6915-0.6575,1.3846-1.3489,2.0778-1.9728c1.038-1.0041,2.1113-1.9728,3.1849-2.908
		c0.1385-0.1385,0.2773-0.2434,0.4158-0.3462c0.5882-0.5547,1.2104-1.0737,1.8343-1.5927c1.8696-1.628,3.7732-3.1514,5.7124-4.6405
		c0.9705-0.761,1.9745-1.5234,2.9772-2.2501c1.0041-0.761,2.0081-1.4877,3.0479-2.1809c1.038-0.7271,2.0777-1.4538,3.1157-2.147
		c4.2233-2.8048,8.5864-5.4354,13.1559-7.9289c2.2518-1.2457,4.5716-2.4226,6.9602-3.5655
		c1.2461-0.6236,2.4918-1.2121,3.7732-1.8004c1.1075-0.519,2.2501-1.038,3.4286-1.523c0.0336-0.0357,0.1032-0.0357,0.1385-0.0692
		c1.1768-0.5193,2.3194-1.0397,3.5316-1.4895c2.908-1.2461,5.8865-2.389,8.933-3.4623c2.9415-1.038,5.9541-2.0424,8.9669-2.9772
		c3.5298-9.7629,5.4368-20.3931,5.4368-31.4714C870.9625,344.4172,834.4344,305.1557,789.3893,305.1557z M811.8604,231.5468
		c-0.0356-0.0336-0.0356-0.0692-0.0356-0.1028c-0.0339-1.0737-0.1385-2.1116-0.2773-3.0821
		c-0.3801-2.4918-1.1072-4.5003-2.3886-5.2966c-0.0339-0.0692-0.0692-0.1046-0.1031-0.1046
		c-19.423-12.0487-92.3049,32.1306-102.9333,46.4294c-1.4199,1.9392-1.6972,3.2899-0.5883,3.912
		c0.6914,0.4158,2.0067,0.519,3.9456,0.2434c0.0696,0,0.1389-0.0353,0.2437-0.0353c3.9117-0.519,8.6201-1.4202,13.7442-2.4582
		c8.0674-1.6619,17.3113-3.8428,26.6938-6.1974c3.4979-1.87,7.0294-3.6703,10.561-5.3322
		c3.7396-1.8343,7.4775-3.4962,11.1478-4.9853c14.8531-6.0929,28.3557-9.2439,35.8349-5.8512
		c0.0692,0.0339,0.1724,0.0696,0.2416,0.1032c0.2077,0.0692,0.3818,0.1388,0.5543,0.2434c0.9352-0.2434,1.5587-0.4511,1.8008-0.5207
		c0.0353-0.0336,0.1046-0.0336,0.1385-0.0336C810.4402,248.478,812.1714,239.026,811.8604,231.5468z"/>
	<path fill="#61220E" d="M533.9774,594.1169c-4.9853,2.666-9.5905,5.8848-13.8491,9.5549
		c-0.2081,0.1388-0.3805,0.3126-0.5882,0.4854c-0.1725,0.1385-0.3466,0.277-0.519,0.4495c0.7607,0.5546,1.5231,1.0397,2.2855,1.5234
		c0.2064-0.1724,0.4144-0.3805,0.6578-0.519c4.2229-3.6703,8.7941-6.8892,13.7798-9.5212c7.097-3.7736,16.9984-5.3323,22.574-0.553
		C553.3326,588.4381,541.9061,589.892,533.9774,594.1169z"/>
	<path fill="#61220E" d="M519.0211,604.6066c-0.6578,0.5546-1.3153,1.1429-1.9392,1.7311
		c-0.1385,0.1049-0.2417,0.2434-0.3802,0.3466c-12.2568,11.4248-21.9165,26.0027-31.2993,39.2971v-0.6932
		c0,4.2943-4.9853,3.8089-4.2939,6.891c0.0353,0.1031,0.0692,0.2078,0.1385,0.3109c0.0357,0.1389,0.1049,0.2773,0.1742,0.4158
		c0.519,0.519,1.038,1.038,1.5926,1.5569c-0.0692-0.1028-0.1049-0.206-0.1388-0.3109c-0.6931-3.0817,4.2925-2.5967,4.2925-6.8892
		v0.6918c9.3488-13.2255,18.9393-27.6982,31.0912-39.0894c0.2078-0.1724,0.3819-0.3801,0.5883-0.5529
		c0.7963-0.7624,1.628-1.4891,2.4596-2.1823C520.5442,605.6463,519.7818,605.1613,519.0211,604.6066z M614.0948,621.0881
		c-7.9286-2.2858-21.3619,8.4815-33.0993,14.368c-6.9246,3.4623-13.2252,5.2274-17.4838,1.6619
		c4.6035,6.7521,12.9479,3.8088,21.9841-1.1429c11.0107-5.9897,23.0255-15.0256,30.3641-12.9143
		c1.7668,0.519,3.2206,1.3153,4.397,2.355C618.8724,623.3721,616.8639,621.8844,614.0948,621.0881z M637.7424,672.6755
		c-5.2983,1.2814-8.7606,0.7624-11.0443-1.038c2.076,3.2881,5.8848,4.6727,12.8094,3.0108
		c1.9388-0.4498,3.7749-0.9348,5.4708-1.3489C642.52,672.4339,640.0618,672.1209,637.7424,672.6755z M666.8944,684.7935
		c0.8303,3.3238,1.3153,8.4833,1.5587,14.0215c1.1412,0.2081,2.2501,0.4158,3.3577,0.6239
		c1.1765-4.6744,2.8384-10.6288,5.0902-16.6539C673.8885,685.6591,670.4955,685.8672,666.8944,684.7935z"/>
	<path fill="#61220E" d="M461.5131,133.9117c-70.111,60.2771-4.5356,187.8283,21.2926,214.4867
		c0.7271-4.8804,1.87-10.0739,3.5655-15.5802c8.4832-27.6625,30.1564-63.3942,75.5817-108.8182
		c33.9649-33.9649,60.9363-54.3227,82.3322-65.5751c5.506-2.9433,10.6638-5.2287,15.4431-6.9938
		C639.4043,134.1891,545.0574,62.1035,461.5131,133.9117z M807.7051,248.6857c-5.0549-1.5231-19.528,1.4541-35.8349,5.8512
		c-23.8893,6.4391-51.7599,15.8911-60.1047,18.4186c-0.2773,0.1049-0.519,0.1385-0.7271,0.2081
		c-0.2417,0.0692-0.4494,0.1385-0.6235,0.1738c-0.3113,0.0696-0.519,0.1388-0.6915,0.1728
		c3.9117-0.519,8.6201-1.4202,13.7442-2.4582c8.0674-1.6619,17.3113-3.8428,26.6938-6.1974c3.4979-1.87,7.0294-3.6703,10.561-5.3322
		c17.7611-4.7437,36.0073-9.1747,47.2244-10.7334C807.8774,248.7553,807.7743,248.7196,807.7051,248.6857z M811.8604,231.5468
		c0.311,7.4792-1.4202,16.9312-1.4202,16.9312C814.3522,248.0621,813.4174,238.7843,811.8604,231.5468z M1004.3614,136.7165
		c-0.2403,0.4497-0.4161,0.8995-0.6222,1.3489c25.2739,14.4377,49.5098,35.0389,70.9056,63.5331
		c0.1759-0.2077,0.382-0.4158,0.5543-0.6575C1053.3875,173.6926,1029.395,152.6416,1004.3614,136.7165z"/>
	<path fill="#61220E" d="M1180.2811,442.054c-0.1759-1.2475-0.3818-2.5275-0.5883-3.7749
		c-2.3193-13.641-5.3693-27.2467-9.0039-40.5768c-0.0339-0.0692-0.0339-0.1388-0.0675-0.2081
		c-0.2098-0.7267-0.4159-1.4895-0.6256-2.2162c-16.8582-61.178-45.182-117.0598-64.9515-150.8862
		c-0.0337-0.0692-0.0675-0.1032-0.1046-0.1724c20.0126-32.8916,80.0481-145.5539-5.8495-192.5719
		C991.6213-7.2112,920.2999,73.0093,901.9841,97.3145c-90.3317-15.7187-175.3315,5.1598-207.3575,29.5342
		c-42.0306-42.0323-179.0677-109.1665-270.1265,1.5927c-75.9958,92.4769,9.6262,204.7591,47.5723,254.996
		c-18.1077,35.5575-82.7833,178.2038,9.3488,269.4687c-0.0692-0.1385-0.1385-0.277-0.1742-0.4158
		c-0.0692-0.1031-0.1032-0.2078-0.1385-0.3109c-0.6914-3.0821,4.2939-2.5967,4.2939-6.891v0.6932
		c9.3828-13.2944,19.0425-27.8723,31.2993-39.2971c0.1385-0.1032,0.2417-0.2417,0.3802-0.3466
		c0.6239-0.5882,1.2814-1.1765,1.9392-1.7311c0.1724-0.1724,0.3466-0.3109,0.519-0.4495c0.2077-0.1727,0.3801-0.3466,0.5882-0.4854
		c4.2586-3.67,8.8638-6.8889,13.8491-9.5549c7.9286-4.225,19.3552-5.6788,24.3408,1.4199c1.5923,1.3846,2.8384,3.2881,3.5655,5.8156
		c1.6615,5.8173,0.1046,12.7418-0.7271,19.423c-0.4158,3.3927-0.6239,6.7182-0.1385,9.7646
		c0.1724,1.1426,0.4158,2.2501,0.8317,3.3234c0.4833,1.2814,1.038,2.355,1.6619,3.2546c4.2586,3.5654,10.5593,1.8004,17.4838-1.6619
		c11.7374-5.8865,25.1707-16.6539,33.0993-14.368c2.7691,0.7963,4.7776,2.2841,6.1621,4.3278
		c1.9745,1.6955,3.1867,4.0505,3.9138,6.8553c1.2104,4.5695,1.1073,10.3176,0.7963,16.0653
		c-0.0356,0.4837-0.0356,0.9688-0.0692,1.4538c-0.5208,8.6557-1.1786,17.1729,1.8004,21.8473
		c2.2838,1.8004,5.746,2.3194,11.0443,1.038c2.3194-0.5546,4.7776-0.2416,7.2358,0.6239
		c9.7289-2.2518,16.3069-2.4935,21.2926,9.5549c0.2077,0.5546,0.4158,1.1768,0.6235,1.9392
		c3.6011,1.0737,6.9941,0.8655,10.0067-2.0085c5.5736-15.0612,14.5066-30.3641,27.0403-26.0702
		c17.3792,5.9205,14.5405,43.4508,35.3498,43.2784c11.3217-0.1046,11.4249-14.6454,19.8724-17.7625
		c11.322-4.1537,16.6539,10.8719,21.3975,17.7625c17.7272,25.6205,28.1819-18.6281,50.098-0.0692
		c3.4287,2.908,5.54,6.9938,7.376,11.2863c2.7692,6.4748,4.8808,13.4686,9.7969,17.8996
		c12.7062-0.7963,24.8951-1.8004,36.5637-2.9416c-13.1224,1.1412-25.3452,2.0421-26.4168,2.1809l10.975-17.7272
		c4.6727-4.7084,6.8196,2.2855,9.2069,4.9854c1.6297,1.8696,3.5668,1.6972,5.6092,0.519c2.3194-1.3846,2.5628-3.6347,4.4328-5.2627
		c2.0081-1.7311,4.8821-1.4185,6.8196,0.3819c1.4539,1.3846,1.8361,4.2925,4.2939,3.8767c1.9409-0.3112,3.0464-3.4623,5.0549-3.8767
		c2.2855-0.485,3.8105,1.4542,5.0209,2.9416c2.113,2.6663,4.95,5.4015,6.7521,8.2416c12.7737-1.7311,24.8581-3.7057,36.2829-5.8509
		c0.0336,0,0.1046,0,0.1385-0.0357c12.5338-2.355,24.3069-4.9517,35.3498-7.7208c0.4494-0.1385,0.8992-0.2417,1.3524-0.3466
		c6.2654-1.6263,12.2904-3.2881,18.106-5.0193h0.0336l0.9369-0.277l3.0461-0.9352c1.2104-0.7267,2.2148-1.7311,3.0464-2.9769
		c0.2773-0.3822,0.5546-0.832,0.798-1.2814c0.0339-0.0696,0.0675-0.1049,0.1014-0.1741c0.2095-0.4144,0.4158-0.8303,0.5883-1.2461
		c0.2773-0.5882,0.5208-1.2121,0.7641-1.8343c0.3448-0.9705,0.6561-1.9745,0.9331-3.0482c0.0339-0.1367,0.0714-0.2756,0.1049-0.4141
		c0.2064-0.7963,0.4158-1.5927,0.5883-2.4243c0.3448-1.7311,0.6931-3.4962,0.9705-5.2274c0.1389-0.7624,0.2773-1.5231,0.4158-2.2515
		c0.1388-0.8303,0.3112-1.6619,0.4497-2.4582c0.5173-2.7352,1.1055-5.1934,1.9711-7.1326c0.2098-0.5526,0.4872-1.038,0.7645-1.5231
		c0.1385-0.2081,0.3109-0.4141,0.4494-0.6222c0.6561-0.8655,1.3154-1.5927,1.9715-2.2162c0.5917-0.6239,1.1799-1.1076,1.7682-1.4894
		c0.5546-0.3806,1.1055-0.6575,1.6602-0.83c0.1384-0.0696,0.2433-0.1049,0.3822-0.1049c0.1384-0.0693,0.3109-0.1032,0.4833-0.1032
		c0.2434-0.0356,0.4868-0.0692,0.7271-0.0692c0.3109,0,0.5883,0.0336,0.8656,0.1031c0.382,0.0693,0.7642,0.1741,1.109,0.3126h0.0336
		c0.3483,0.1724,0.6932,0.3466,1.038,0.553c0.0713,0,0.1389,0.0692,0.2098,0.1046c0.2063,0.1388,0.4497,0.3112,0.6558,0.4854
		c1.2478,0.8991,2.4956,2.1452,3.777,3.3574c0.5509,0.5546,1.1394,1.0736,1.7312,1.5927c0,0,0,0.0353,0.0336,0.0353
		c0.2773,0.2081,0.5546,0.4498,0.8319,0.6578c0.2739,0.2417,0.5509,0.4494,0.8282,0.6218c0.5206,0.3823,1.038,0.6932,1.5927,0.9705
		c0.2434,0.1389,0.4867,0.2417,0.764,0.3466c0.4124,0.2081,0.8656,0.3466,1.349,0.4497c0.2772,0.1032,0.5546,0.1385,0.8656,0.1724
		c1.0378,0.1385,2.1808,0.1049,3.3912-0.1724c1.1089-2.3193,1.7686-5.2626,2.3907-8.3091c0.0709-0.2081,0.1045-0.4498,0.1384-0.6932
		c0.1385-0.5546,0.2434-1.1429,0.3448-1.7311c0.3483-1.6262,0.6931-3.2542,1.1428-4.8129c0.2095-0.7963,0.4498-1.557,0.7268-2.2841
		c0.1049-0.3466,0.2098-0.6578,0.3483-0.9705c0.1388-0.3448,0.2773-0.6915,0.4497-1.038c0.105-0.2773,0.2434-0.519,0.3823-0.7624
		c0.135-0.2756,0.2738-0.5529,0.4497-0.7963c0.1385-0.2773,0.3109-0.519,0.4834-0.7607c0.3447-0.485,0.7271-0.9348,1.1428-1.3845
		c0.1385-0.1389,0.2773-0.2434,0.4159-0.3823c0.2063-0.2077,0.4158-0.3801,0.6556-0.5526c0.2098-0.2081,0.4498-0.3466,0.6932-0.4854
		c0.4497-0.277,0.9369-0.519,1.4541-0.7624c0.3109-0.1032,0.6254-0.2078,0.9702-0.3109c0.2437-0.0693,0.4497-0.1389,0.7271-0.1724
		c0.3448-0.1049,0.6931-0.1389,1.0719-0.1741c0.2434-0.0339,0.4868-0.0693,0.7642-0.0693c0.7267-0.0696,1.5212-0.0339,2.3533,0.0353
		c0.2434,0.0339,0.5208,0.0692,0.7606,0.1385c0.2095,0.0339,0.382,0.0696,0.5543,0.1388c0.1725,0.0693,0.3483,0.1368,0.5547,0.2064
		c0.3448,0.1385,0.7271,0.3127,1.0719,0.4851c0.3818,0.2081,0.7267,0.4158,1.109,0.6575c1.8021,1.1429,3.5671,2.6663,5.3319,3.8445
		c0.0338,0,0.0338,0,0.0338,0c0.382,0.2417,0.7642,0.4498,1.109,0.6222c0.3822,0.2077,0.7606,0.3801,1.1429,0.519
		c0.2059,0.1049,0.4497,0.1741,0.6931,0.2078c0.1385,0.0696,0.2773,0.1049,0.4497,0.1049c0.311,0.0693,0.6218,0.1032,0.9331,0.1032
		c0.2434,0,0.4868-0.0339,0.7268-0.0693c0.3147-0.0339,0.6256-0.1031,0.903-0.2081c0.1384,0,0.2772-0.0336,0.3787-0.1031
		c0.7977-0.2417,1.491-0.5883,2.147-1.0733c0.2773-0.1724,0.5208-0.3806,0.7607-0.6239c0.5883-0.4837,1.1089-1.1072,1.5587-1.7651
		c0.1049-0.1385,0.2097-0.2417,0.2773-0.3802c0.3109-0.4515,0.6221-0.9705,0.899-1.4894c0.4163-0.7624,0.7981-1.5587,1.1429-2.3886
		c0.3483-0.7963,0.6595-1.6284,0.9705-2.4583c0.6931-1.8696,1.3153-3.7056,1.9746-5.1934c0.3112,0.3109,0.656,0.6575,1.038,1.038
		c0.3822,0.3466,0.7606,0.7624,1.1769,1.1765c0.4158,0.4162,0.8315,0.8656,1.2473,1.351c0.3448,0.3466,0.6897,0.6931,0.967,1.0733
		c1.8696,2.0424,3.8446,4.3635,5.5757,6.5779c0.3448,0.4515,0.6931,0.9012,1.038,1.351c1.2139,1.6279,2.2518,3.1849,2.9786,4.4663
		c9.3827-7.1323,17.2404-14.4034,23.8876-21.536c-1.0715-1.8344-1.8662-3.1497-2.3533-3.9813
		c1.0044-0.2081,2.0084-0.4158,2.9449-0.519c0.6561-0.1032,1.3153-0.1724,1.9375-0.2417c0.6222-0.0696,1.2478-0.1049,1.8361-0.1049
		c1.1429-1.3506,2.2484-2.666,3.3235-3.9813c14.576-17.9352,22.1228-34.5888,27.9384-46.4633
		c1.109-2.2501,2.147-4.502,3.1176-6.7861c0.6217-1.4199,1.2474-2.8401,1.802-4.2586c3.4958-8.6218,6.2314-17.5191,8.3409-26.5906
		C1186.2017,510.0519,1185.647,475.9143,1180.2811,442.054z M644.2851,158.425c-21.3958,11.2524-48.3672,31.6102-82.3322,65.5751
		c-45.4254,45.424-67.0985,81.1556-75.5817,108.8182c-1.6955,5.5064-2.8384,10.6998-3.5655,15.5802
		c-25.8282-26.6585-91.4036-154.2096-21.2926-214.4867c83.5443-71.8082,177.8912,0.2773,198.2151,17.5194
		C654.9489,153.1962,649.7911,155.4817,644.2851,158.425z M950.7672,217.9411c3.3234-2.5628,9.0341-3.1171,16.03-2.2854
		c8.2734,1.0041,18.3154,3.9473,28.32,7.7209c28.4962,10.7334,56.6782,28.2864,42.5853,27.8014
		c-24.6143-0.8303-85.8636-11.9795-85.8636-11.9795S946.5778,221.1956,950.7672,217.9411z M705.5341,273.3021
		c-1.1089-0.6222-0.8316-1.9728,0.5883-3.912c10.6285-14.2988,83.5103-58.4781,102.9333-46.4294
		c0.0339,0,0.0692,0.0353,0.1031,0.1046c1.2814,0.7963,2.0085,2.8048,2.3886,5.2966c0.1389,0.9705,0.2434,2.0085,0.2773,3.0821
		c0,0.0336,0,0.0692,0.0356,0.1028c1.557,7.2375,2.4918,16.5154-1.4202,16.9312c-0.0339,0-0.1032,0-0.1385,0.0336
		c-0.2421,0.0696-0.8656,0.2773-1.8008,0.5207c-0.1724-0.1046-0.3466-0.1742-0.5543-0.2434
		c-11.217,1.5587-29.4633,5.9897-47.2244,10.7334c-3.5316,1.6619-7.063,3.4623-10.561,5.3322
		c-9.3824,2.3547-18.6263,4.5356-26.6938,6.1974c-5.1241,1.038-9.8325,1.9392-13.7442,2.4582c-0.1049,0-0.1741,0.0353-0.2437,0.0353
		C707.5408,273.8211,706.2255,273.7179,705.5341,273.3021z M1006.1635,685.5898c-0.0374-0.0339-0.1049-0.0693-0.1389-0.0693
		c-0.7977-0.4161-1.5923-0.7963-2.3903-1.2121c1.2139-0.3806,2.4243-0.761,3.6346-1.1429c0.0374,0,0.1049-0.0339,0.1385-0.0339
		C1006.9917,683.9619,1006.5793,684.7935,1006.1635,685.5898z M1048.1941,637.1516c-0.1724,0.1389-0.3448,0.2773-0.5208,0.4161
		c-8.8616,6.5441-18.6266,12.395-29.152,17.3114c-0.1014,0.1046-0.1724,0.1385-0.2773,0.1385
		c-7.026,3.3591-14.3664,6.3024-22.0176,8.7942c-0.6595,0.242-1.3153,0.4497-1.9749,0.6578
		c-0.0675,0.0353-0.1385,0.0353-0.206,0.0693c-7.3743,2.3194-14.9919,4.2586-22.853,5.7816
		c-5.6771,1.109-11.4249,2.0085-17.3114,2.666c-7.5128,0.8656-15.1644,1.3171-22.9545,1.3846
		c-0.7271,0.0356-1.4877,0.0356-2.2145,0.0356c-0.9369,0-1.9035,0-2.8404-0.0356c-29.7063-0.3448-57.5769-6.5084-81.7083-17.0341
		c-51.2427-22.3306-85.7958-64.3629-85.7958-112.5574c0-23.5445,8.2395-45.6335,22.6772-64.676
		c-41.1654-4.5003-73.2607-41.8246-73.2607-87.2482c0-48.4382,36.5263-87.6997,81.6051-87.6997
		c45.0452,0,81.5732,39.2615,81.5732,87.6997c0,11.0782-1.907,21.7085-5.4368,31.4714c19.5259-5.9558,40.8542-9.21,63.1865-9.21
		c0.5543,0,1.1426,0,1.6973,0.0353c-4.9871-11.3573-7.7902-24.0635-7.7902-37.4628c0-48.4026,36.5263-87.664,81.5698-87.664
		c45.0805,0,81.6068,39.2615,81.6068,87.664c0,31.299-15.2693,58.7894-38.2239,74.2308
		c31.7826,23.5445,51.5183,56.47,51.5183,92.8596C1099.0902,580.9593,1079.5979,613.6785,1048.1941,637.1516z M1081.7788,209.355
		c-2.1469-2.874-4.3278-5.6788-6.5797-8.414c-0.1724,0.2417-0.3784,0.4497-0.5543,0.6575
		c-21.3958-28.4942-45.6317-49.0954-70.9056-63.5331c0.2061-0.4494,0.3819-0.8992,0.6222-1.3489
		c-3.7396-2.355-7.4418-4.6052-11.2188-6.7521c9.2474-21.8473,28.114-36.8036,49.8921-36.8036
		c30.9541,0,56.0555,30.2256,56.0555,67.4451C1099.0902,179.7515,1092.443,197.0629,1081.7788,209.355z"/>
	<path opacity="0.1" fill="#AF4725" d="M624.967,648.3365c-0.6238,0.1371-1.2478,0.2756-1.9053,0.4141
		c-6.7504,1.3846-13.7106,2.1473-20.8768,2.1473c-34.0344,0-64.2601-16.6878-83.3379-42.5856
		c0.7963-0.7624,1.628-1.4891,2.4596-2.1823c0.2064-0.1724,0.4144-0.3805,0.6578-0.519c4.2229-3.6703,8.7941-6.8892,13.7798-9.5212
		c7.097-3.7736,16.9984-5.3323,22.574-0.553c1.5923,1.3846,2.8384,3.2881,3.5655,5.8156c1.6615,5.8173,0.1046,12.7418-0.7271,19.423
		c-0.4158,3.3927-0.6239,6.7182-0.1385,9.7646c0.1724,1.1426,0.4158,2.2501,0.8317,3.3234c0.4833,1.2814,1.038,2.355,1.6619,3.2546
		c4.6035,6.7521,12.9479,3.8088,21.9841-1.1429c11.0107-5.9897,23.0255-15.0256,30.3641-12.9143
		c1.7668,0.519,3.2206,1.3153,4.397,2.355c1.9745,1.6955,3.1867,4.0505,3.9138,6.8553
		C625.3811,636.8407,625.278,642.5887,624.967,648.3365z"/>
	<path opacity="0.1" fill="#AF4725" d="M707.7842,543.3524c0,49.1296-31.9921,90.5381-75.7202,103.3831
		c-0.4158,0.1385-0.8655,0.2773-1.2814,0.3466c-1.5927,0.4498-3.1853,0.8656-4.8115,1.2461c-0.0353,0-0.0353,0-0.0693,0.0353
		c-0.6238,0.1389-1.2478,0.2773-1.9053,0.3806c-6.7164,1.4199-13.6749,2.1808-20.8076,2.1808c-3.2899,0-6.578-0.1724-9.7982-0.519
		c-1.5234-0.0696-3.0129-0.2773-4.5003-0.519c-0.1049,0-0.2081-0.0357-0.313-0.0357c-6.7856-0.9687-13.3636-2.6306-19.6647-4.8468
		c-0.5207-0.2081-1.004-0.3805-1.4891-0.5883c-6.578-2.389-12.8111-5.54-18.6959-9.2103
		c-6.8553-4.2922-13.1917-9.3824-18.8701-15.1644c-0.6222-0.6575-1.2461-1.2814-1.8344-1.9388
		c-2.9097-3.0464-5.6449-6.3702-8.1724-9.7986c-0.206-0.2773-0.4141-0.5883-0.5882-0.8655c-0.553-0.7271-1.0737-1.4539-1.557-2.1809
		c-12.084-17.4838-19.1118-38.8456-19.1118-61.9051c0-59.4822,46.8099-107.6074,104.5949-107.6074
		C660.9386,435.745,707.7842,483.8702,707.7842,543.3524z"/>
	<path opacity="0.1" fill="#AF4725" d="M1179.4766,541.8328c-2.2148,10.767-5.3319,21.2927-9.4164,31.4378
		c-0.2434-0.2081-0.4836-0.3466-0.7271-0.5547c-24.4794-19.7-40.2319-50.3754-40.2319-84.8257
		c0-34.7951,16.03-65.6447,40.8911-85.3447c0.0679-0.0692,0.1725-0.1385,0.2404-0.2081c0.037,0.0696,0.037,0.1388,0.0709,0.2081
		c3.8411,14.1264,7.026,28.5638,9.3824,43.0011c0.2063,1.2461,0.4161,2.5275,0.5885,3.7735
		C1185.0182,480.6548,1185.5725,512.1954,1179.4766,541.8328z"/>
	<path fill="#E5AF23" d="M847.9706,729.2484c-14.4017,0.9705-29.1163,1.5234-43.8666,1.8007
		c-0.519,0.0353-1.038,0.0353-1.5923,0.0353c-18.9733,0.3466-37.9805,0.3113-56.3315,0.3113h-1.6955
		c-0.6592,0-1.317,0-2.0085-0.0339c-0.5882,0-1.2121,0-1.8696-0.0356c-19.4922-0.277-49.6839-1.9036-49.6839-1.9036
		s-10.3515-0.6235-22.574-1.9053c0,0-0.5886-0.0693-1.6266-0.1724c-0.5543-0.0693-1.0733-0.1385-1.6279-0.1741
		c-0.5883-0.0676-1.2457-0.1028-1.9728-0.2061c-0.7271-0.0696-1.4555-0.1741-2.1826-0.2433
		c-4.3971-0.553-8.8634-1.2122-12.9478-1.9732c-4.5359-0.8316-8.6557-1.7311-11.8763-2.7708c-0.0339,0-0.0339,0-0.0693-0.0336
		c-0.4497-0.1389-0.8655-0.2773-1.246-0.4158c-0.1725-0.0696-0.311-0.1032-0.4851-0.1724c0.4158-0.0356,0.8317-0.0356,1.2814-0.0696
		c2.1116-0.1046,4.431-0.1385,6.8553-0.2078c5.0546-0.1724,10.5592-0.5883,15.4078-2.4243c1.8344-0.6578,3.6008-1.557,5.1934-2.6999
		c1.4182-1.038,2.7352-2.2858,3.8424-3.7736c0.6578-0.8316,1.2817-1.7311,1.8007-2.7352c0.0336-0.0693,0.0693-0.1049,0.0693-0.1742
		c0.1724-0.3448,0.3801-0.7267,0.519-1.1072c0-0.0357,0.0353-0.0357,0.0353-0.0693c0.2063-0.4158,0.4144-0.832,0.5529-1.2814
		c0.2773-0.6222,0.485-1.2817,0.6931-1.9392c0.3109-1.4539,0.7271-3.2881,1.2461-5.4351
		c1.1765-4.6744,2.8384-10.6288,5.0902-16.6539c5.5736-15.0612,14.5066-30.3641,27.0403-26.0702
		c17.3792,5.9205,14.5405,43.4508,35.3498,43.2784c11.3217-0.1046,11.4249-14.6454,19.8724-17.7625
		c11.322-4.1537,16.6539,10.8719,21.3975,17.7625c17.7272,25.6205,28.1819-18.6281,50.098-0.0692
		c3.4287,2.908,5.54,6.9938,7.376,11.2863c2.7692,6.4748,4.8808,13.4686,9.7969,17.8996
		C847.866,729.1456,847.937,729.2148,847.9706,729.2484z"/>
	<path fill="#E5AF23" d="M1011.3905,702.2433c-0.0336,0.0339-0.071,0.0696-0.1046,0.0696c-1.1059,0.6575-2.3873,1.038-3.8785,1.1425
		l0.9369-0.277L1011.3905,702.2433z"/>
	<path fill="#E5AF23" d="M1106.0148,656.299c-0.071,0.0339-0.105,0.0693-0.1725,0.1389c-1.7311,1.2814-3.4623,2.561-5.1934,3.8085
		c-1.3524,0.9688-2.6677,1.9392-4.0166,2.8387c-0.3113,0.2416-0.5886,0.4497-0.8656,0.5882
		c-21.3622,14.9581-42.8999,26.3137-67.8625,33.9653c-4.3957,1.3506-8.9296,2.5967-13.5721,3.7039
		c-0.0336,0.0353-0.0675,0.0353-0.1011,0.0353l-2.8405,0.8655c1.2104-0.7267,2.2148-1.7311,3.0464-2.9769
		c0.2773-0.3822,0.5546-0.832,0.798-1.2814c0.0339-0.0696,0.0675-0.1049,0.1014-0.1741c0.2095-0.4144,0.4158-0.8303,0.5883-1.2461
		c0.2773-0.5882,0.5208-1.2121,0.7641-1.8343c0.3448-0.9705,0.6561-1.9745,0.9331-3.0482c0.0339-0.1367,0.0714-0.2756,0.1049-0.4141
		c0.2064-0.7963,0.4158-1.5927,0.5883-2.4243c0.3448-1.7311,0.6931-3.4962,0.9705-5.2274c0.1389-0.7624,0.2773-1.5231,0.4158-2.2515
		c0.1388-0.8303,0.3112-1.6619,0.4497-2.4582c0.5173-2.7352,1.1055-5.1934,1.9711-7.1326c0.2438-0.5526,0.4872-1.038,0.7645-1.5231
		c0.1385-0.2081,0.3109-0.4141,0.4494-0.6222c0.6561-0.8655,1.3154-1.5927,1.9715-2.2162c0.5917-0.6239,1.1799-1.1076,1.7682-1.4894
		c0.5546-0.3806,1.1055-0.6575,1.6602-0.83c0.1384-0.0696,0.2433-0.1049,0.3822-0.1049c0.1384-0.0693,0.3109-0.1032,0.4833-0.1032
		c0.2434-0.0356,0.4868-0.0692,0.7271-0.0692c0.3109,0,0.5883,0.0336,0.8656,0.1031c0.382,0.0693,0.7642,0.1741,1.109,0.3126h0.0336
		c0.3483,0.1724,0.6932,0.3466,1.038,0.553c0.0713,0,0.1389,0.0692,0.2098,0.1046c0.2063,0.1388,0.4497,0.3112,0.6558,0.4854
		c1.2478,0.8991,2.4956,2.1452,3.777,3.3574c0.5509,0.5546,1.1394,1.0736,1.7312,1.5927c0,0,0,0.0353,0.0336,0.0353
		c0.2773,0.2081,0.5546,0.4498,0.8319,0.6578c0.2739,0.2417,0.5509,0.4494,0.8282,0.6218c0.5206,0.3823,1.038,0.6932,1.5927,0.9705
		c0.2434,0.1389,0.4867,0.2773,0.764,0.3466c0.4124,0.2081,0.8656,0.3466,1.349,0.4497c0.2772,0.1032,0.5546,0.1385,0.8656,0.1724
		c1.0378,0.1385,2.1808,0.1049,3.3912-0.1724c1.1089-2.3193,1.7686-5.2626,2.3907-8.3091c0.0709-0.2081,0.1045-0.4498,0.1384-0.6932
		c0.1385-0.5546,0.2434-1.1429,0.3448-1.7311c0.3483-1.6262,0.6931-3.2542,1.1428-4.8129c0.2095-0.7963,0.4498-1.557,0.7268-2.2841
		c0.1049-0.3466,0.2098-0.6578,0.3483-0.9705c0.1388-0.3448,0.2773-0.6915,0.4497-1.038c0.105-0.2773,0.2434-0.519,0.3823-0.7624
		c0.135-0.2756,0.2738-0.5529,0.4497-0.7963c0.1385-0.2773,0.3109-0.519,0.4834-0.7607c0.3447-0.485,0.7271-0.9348,1.1428-1.3845
		c0.1385-0.1389,0.2773-0.2434,0.4159-0.3823c0.2063-0.2077,0.4158-0.3801,0.6556-0.5526c0.2098-0.2081,0.4498-0.3466,0.6932-0.4854
		c0.4497-0.277,0.9369-0.519,1.4541-0.7624c0.3109-0.1032,0.6254-0.2078,0.9702-0.3109c0.2437-0.0693,0.4497-0.1389,0.7271-0.1724
		c0.3448-0.1049,0.6931-0.1389,1.0719-0.1741c0.2434-0.0339,0.4868-0.0693,0.7642-0.0693c0.7267-0.0696,1.5212-0.0339,2.3533,0.0353
		c0.2434,0.0339,0.5208,0.0692,0.7606,0.1385c0.2095,0.0339,0.382,0.0696,0.5543,0.1388c0.1725,0.0693,0.3483,0.1368,0.5547,0.2064
		c0.3448,0.1385,0.7271,0.3127,1.0719,0.4851c0.3818,0.2081,0.7267,0.4158,1.109,0.6575c1.8021,1.1429,3.5671,2.6663,5.3319,3.8445
		c0.0338,0,0.0338,0,0.0338,0c0.382,0.2417,0.7642,0.4498,1.109,0.6222c0.3822,0.2077,0.7606,0.3801,1.1429,0.519
		c0.2059,0.1049,0.4497,0.1741,0.6931,0.2078c0.1385,0.0696,0.2773,0.1049,0.4497,0.1049c0.311,0.0693,0.6218,0.1032,0.9331,0.1032
		c0.2434,0,0.4868-0.0339,0.7268-0.0693c0.3147-0.0339,0.6256-0.1031,0.903-0.2081c0.1384,0,0.2772-0.0336,0.3787-0.1031
		c0.7977-0.2417,1.491-0.5883,2.147-1.0733c0.2773-0.1724,0.5208-0.3806,0.7607-0.6239c0.5883-0.4837,1.1089-1.1072,1.5587-1.7651
		c0.1384-0.1046,0.2097-0.2417,0.2773-0.3802c0.3483-0.4854,0.6221-0.9705,0.899-1.4894c0.4498-0.7624,0.7981-1.5587,1.1429-2.3886
		c0.3483-0.832,0.6931-1.6619,0.9705-2.4583c0.6931-1.8696,1.3153-3.7056,1.9746-5.1934c0.3112,0.3109,0.656,0.6575,1.038,1.038
		c0.3822,0.3466,0.7606,0.7624,1.1769,1.1765c0.4158,0.4162,0.8315,0.8656,1.2473,1.351c0.3113,0.3466,0.6561,0.6931,0.967,1.0733
		c1.8696,2.0424,3.8446,4.3635,5.5757,6.5779c0.3448,0.4515,0.6931,0.9012,1.038,1.351
		C1104.25,653.4606,1105.288,655.0176,1106.0148,656.299z"/>
	<path fill="#E5AF23" d="M676.1387,700.2706c0.1385,3.1496,0.1724,6.5779,0.1724,9.7276v0.3126l-1.4542-0.4515l-5.5735-1.6954
		l-0.5883-0.1724l-1.7668-0.5208v1.5927c0,0.796,0,1.5587-0.0339,2.3211v0.796c0,0.6578,0,1.3153-0.0353,1.9731
		c-0.0339,4.708-0.1371,8.5526-0.2417,10.3176c-0.0339,0.6928-0.0339,1.0733-0.0339,1.0733s-0.59-0.0692-1.6279-0.1724
		c-0.5547-0.0692-1.0737-0.1385-1.628-0.1741c-0.5886-0.0692-1.246-0.1031-1.9731-0.2077
		c-0.7267-0.0696-1.4538-0.1724-2.1805-0.2421c-2.6663-0.277-5.9561-0.6235-9.5908-1.0397
		c-1.2814-0.1724-2.632-0.3109-3.9813-0.4833c-1.0397-0.1385-2.0777-0.2773-3.1157-0.3823
		c-2.0777-0.2756-4.2246-0.5882-6.3716-0.8655c-0.0339,0-0.0339,0-0.0693-0.0336c-8.8973-1.2461-18.0028-2.7692-24.7196-4.431
		c-18.8361-4.6744-44.629-13.6428-67.9301-24.0295c-9.7646-4.3279-19.0425-8.8977-27.2484-13.5365
		c-0.2417-0.1385-0.519-0.3126-0.7963-0.4497c-0.0353-0.0353-0.0692-0.0353-0.1031-0.0693
		c-0.6932-0.3822-1.3864-0.7963-2.0438-1.1782c-1.6262-0.9351-3.1849-1.8699-4.7083-2.8387
		c-0.8656-0.519-1.6972-1.0397-2.4935-1.5587c-5.5383-3.6347-10.2127-7.2355-13.675-10.6638
		c-2.113-2.1116-9.3488-7.0616-10.9058-10.2822c-0.0692-0.1385-0.1385-0.277-0.1742-0.4158
		c-0.0692-0.1031-0.1032-0.2078-0.1385-0.3109c-0.6914-3.0821,4.2939-2.5967,4.2939-6.891v0.6932
		c9.3828-13.2944,19.0425-27.8723,31.2993-39.2971c0.1385-0.1032,0.2417-0.2417,0.3802-0.3466
		c0.6239-0.5882,1.2814-1.1765,1.9392-1.7311c0.1724-0.1724,0.3466-0.3109,0.519-0.4495c0.2077-0.1727,0.3801-0.3466,0.5882-0.4854
		c4.2586-3.67,8.8638-6.8889,13.8491-9.5549c7.9286-4.225,19.3552-5.6788,24.3408,1.4199c0.7607,1.072,1.3846,2.3533,1.8004,3.8428
		c1.6619,5.8156,0.1031,12.7402-0.7271,19.4227c-0.4511,3.912-0.6931,7.7565,0.1371,11.1832
		c0.1385,0.6578,0.3126,1.2814,0.5543,1.9053c0.9012,2.3886,2.0424,4.0845,3.4287,5.2274
		c4.2586,3.5654,10.5593,1.8004,17.4838-1.6619c11.7374-5.8865,25.1707-16.6539,33.0993-14.368
		c2.7691,0.7963,4.7776,2.2841,6.1621,4.3278c1.3863,1.9728,2.1826,4.4663,2.6324,7.2355
		c0.6914,4.1201,0.5543,8.8977,0.3109,13.7106c-0.0336,0.7963-0.0692,1.5927-0.1385,2.3886
		c-0.0339,0.4854-0.0339,0.9352-0.0693,1.4202c-0.5189,9.21-0.8995,17.8996,3.7057,21.4668
		c2.2838,1.8004,5.746,2.3194,11.0443,1.038c2.3194-0.5546,4.7776-0.2416,7.2358,0.6239
		c7.2711,2.4579,14.9563,9.4164,21.9161,11.4941c3.6011,1.0737,6.9941,0.8655,10.0067-2.0085
		c0.1032-0.0692,0.1725-0.1385,0.2756-0.2416c3.1866-3.1849-1.3492,10.4207-1.072,17.1729
		C676.1047,699.8887,676.1387,700.0625,676.1387,700.2706z"/>
	<path fill="#E5AF23" d="M916.1444,722.4288c-0.1049,0.0339-0.2433,0.0692-0.3822,0.0692
		c-4.6727,1.1429-18.2819,2.4922-31.0895,3.6347c-0.1046,0-0.1759,0-0.277,0.0356c-13.1224,1.1412-25.3452,2.0421-26.4168,2.1809
		l10.975-17.7272c4.6727-4.7084,6.8196,2.2855,9.2069,4.9854c1.6297,1.8696,3.5668,1.6972,5.6092,0.519
		c2.3194-1.3846,2.5628-3.6347,4.4328-5.2627c2.0081-1.7311,4.8821-1.4185,6.8196,0.3819c1.4539,1.3846,1.8361,4.2925,4.2939,3.8767
		c1.9409-0.3112,3.0464-3.4623,5.0549-3.8767c2.2855-0.485,3.8105,1.4542,5.0209,2.9416
		C911.5053,716.8535,914.3423,719.5887,916.1444,722.4288z"/>
	<path fill="#8A3F1E" d="M810.4402,248.478c-0.0339,0-0.1032,0-0.1385,0.0336c-0.7271,0.0696-1.5234,0.1742-2.355,0.2773
		c-11.217,1.5587-29.4633,5.9897-47.2244,10.7334c-21.3972,5.6788-42.0663,11.6682-48.9568,13.4333
		c-0.2773,0.1049-0.519,0.1385-0.7271,0.2081c-0.2417,0.0692-0.4494,0.1385-0.6235,0.1738
		c-0.3113,0.0696-0.519,0.1388-0.6915,0.1728c-0.1049,0-0.1741,0.0353-0.2437,0.0353c-1.9389,0.2756-3.2542,0.1724-3.9456-0.2434
		c-1.1089-0.6222-0.8316-1.9728,0.5883-3.912c10.6285-14.2988,83.5103-58.4781,102.9333-46.4294
		c0.0339,0,0.0692,0.0353,0.1031,0.1046c0.5544,0.6578,1.7311,4.1537,2.666,8.3787c0,0.0336,0,0.0692,0.0356,0.1028
		C813.4174,238.7843,814.3522,248.0621,810.4402,248.478z"/>
	<g>
		<path fill="#FBF7CA" d="M1085.7958,377.6893c0,31.299-15.2693,58.7894-38.2239,74.2308
			c-12.5674,8.5529-27.4579,13.4689-43.3829,13.4689c-0.761,0-1.5252,0-2.2519-0.0692c-0.0339,0-0.0339-0.0339-0.0679,0
			c-7.7223-0.2081-15.198-1.6266-22.2275-4.0508c-0.071-0.0336-0.1724-0.0336-0.2434-0.0336
			c-21.6392-7.376-39.3663-24.2716-48.989-46.0832c-4.9871-11.3573-7.7902-24.0635-7.7902-37.4628
			c0-48.4026,36.5263-87.664,81.5698-87.664C1049.2695,290.0252,1085.7958,329.2867,1085.7958,377.6893z"/>
		<g>
			<ellipse fill="#FFFFFF" cx="1012.8868" cy="374.6394" rx="15.7949" ry="15.3029"/>
			<ellipse fill="#FFFFFF" cx="1012.8884" cy="389.9391" rx="12.6385" ry="12.2398"/>
			<ellipse fill="#E79C23" cx="1012.8884" cy="390.9602" rx="52.6949" ry="53.8646"/>
			<path d="M1049.141,389.9426c0-20.7466-16.2262-37.5677-36.2493-37.5677c-20.023,0-36.2555,16.8211-36.2555,37.5677
				c0,20.7432,16.2325,37.5643,36.2555,37.5643C1032.9148,427.5069,1049.141,410.6858,1049.141,389.9426z"/>
			<ellipse fill="#FFFFFF" cx="1018.4216" cy="399.0629" rx="14.2161" ry="13.7729"/>
			<path fill="#FFFFFF" d="M991.087,371.0808c0-5.4738-4.5847-9.9135-10.2348-9.9135c-5.6567,0-10.2414,4.4397-10.2414,9.9135
				c0,5.4773,4.5847,9.9187,10.2414,9.9187C986.5023,380.9995,991.087,376.5582,991.087,371.0808z"/>
		</g>
	</g>
	<g>
		<path fill="#FBF7CA" d="M870.9625,392.8554c0,11.0782-1.907,21.7085-5.4368,31.4714
			c-11.7395,32.8916-41.4088,56.2266-76.1364,56.2266c-2.8044,0-5.5736-0.1371-8.3091-0.4497h-0.0353
			c-41.1654-4.5003-73.2607-41.8246-73.2607-87.2482c0-48.4382,36.5263-87.6997,81.6051-87.6997
			C834.4344,305.1557,870.9625,344.4172,870.9625,392.8554z"/>
		<g>
			<ellipse fill="#FFFFFF" cx="798.0602" cy="389.7972" rx="15.7949" ry="15.3032"/>
			<ellipse fill="#FFFFFF" cx="798.0619" cy="405.0966" rx="12.6387" ry="12.2395"/>
			<ellipse fill="#E79C23" cx="798.0619" cy="406.1177" rx="52.6947" ry="53.8646"/>
			<path d="M834.3143,405.1001c0-20.7466-16.226-37.5677-36.249-37.5677s-36.2559,16.8211-36.2559,37.5677
				c0,20.7432,16.2328,37.5643,36.2559,37.5643S834.3143,425.8433,834.3143,405.1001z"/>
			<ellipse fill="#FFFFFF" cx="803.5951" cy="414.2208" rx="14.2159" ry="13.7733"/>
			<path fill="#FFFFFF" d="M776.2603,386.2383c0-5.4738-4.5847-9.9132-10.2345-9.9132c-5.6566,0-10.2414,4.4393-10.2414,9.9132
				c0,5.4777,4.5848,9.9187,10.2414,9.9187C771.6756,396.157,776.2603,391.716,776.2603,386.2383z"/>
		</g>
	</g>
	<path fill="#8A3F1E" d="M995.1171,223.3765c-10.0046-3.7735-20.0466-6.7168-28.32-7.7209
		c-6.9958-0.8316-12.7065-0.2773-16.03,2.2854c-4.1893,3.2545,1.0716,21.2573,1.0716,21.2573s61.2493,11.1492,85.8636,11.9795
		C1051.7953,251.6629,1023.6133,234.1099,995.1171,223.3765z"/>
	<path fill="#AF4725" d="M1099.0902,544.7796c0,36.1797-19.4923,68.8989-50.8961,92.372c-0.1724,0.1389-0.3448,0.2773-0.5208,0.4161
		c-8.8616,6.5441-18.6266,12.395-29.152,17.3114c-0.1014,0.1046-0.1724,0.1385-0.2773,0.1385
		c-7.026,3.3591-14.3664,6.3024-22.0176,8.7942c-0.6595,0.242-1.3153,0.4497-1.9749,0.6578
		c-0.0675,0.0353-0.1385,0.0353-0.206,0.0693c-7.3743,2.3194-14.9919,4.2586-22.853,5.7816
		c-5.6771,1.109-11.4249,2.0085-17.3114,2.666c-7.5128,0.8656-15.1644,1.3171-22.9545,1.3846
		c-0.7271,0.0356-1.4877,0.0356-2.2145,0.0356c-0.9369,0-1.9035,0-2.8404-0.0356c-29.7063-0.3448-57.5769-6.5084-81.7083-17.0341
		c-51.2427-22.3306-85.7958-64.3629-85.7958-112.5574c0-23.5445,8.2395-45.6335,22.6772-64.676h0.0353
		c3.0464-4.0152,6.3702-7.929,9.9709-11.6682c1.0397-1.1076,2.1116-2.1809,3.2206-3.2545c0.6915-0.6575,1.3846-1.3489,2.0778-1.9728
		c1.038-1.0041,2.1113-1.9728,3.1849-2.908c0.1385-0.1385,0.2773-0.2434,0.4158-0.3462c0.5882-0.5547,1.2104-1.0737,1.8343-1.5927
		c1.8696-1.628,3.7732-3.1514,5.7124-4.6405c0.9705-0.761,1.9745-1.5234,2.9772-2.2501c1.0041-0.761,2.0081-1.4877,3.0479-2.1809
		c1.038-0.7271,2.0777-1.4538,3.1157-2.147c4.2233-2.8048,8.5864-5.4354,13.1559-7.9289c2.2858-1.2104,4.6052-2.4226,6.9602-3.5655
		c1.2461-0.6236,2.4918-1.2121,3.7732-1.8004c1.1075-0.519,2.2501-1.038,3.4286-1.523c0.0336-0.0357,0.1032-0.0357,0.1385-0.0692
		c1.1768-0.5193,2.3194-1.0397,3.5316-1.4895c2.908-1.2461,5.8865-2.389,8.933-3.4623c2.9415-1.038,5.9541-2.0424,8.9669-2.9772
		c19.5259-5.9558,40.8542-9.21,63.1865-9.21c0.5543,0,1.1426,0,1.6973,0.0353c12.7737,0.0692,25.2399,1.2461,37.2194,3.3574
		c0.1014,0.0357,0.2399,0.0357,0.3448,0.0696c0.4497,0.0692,0.8995,0.1738,1.3489,0.2434l0.0374,0.0336
		c1.4167,0.2773,2.8366,0.5547,4.2568,0.832c1.038,0.206,2.0421,0.4141,3.08,0.6575c1.4202,0.3112,2.874,0.6578,4.2943,1.0041
		c1.7311,0.4144,3.4623,0.8656,5.1595,1.3153c2.4918,0.6914,4.95,1.4202,7.4078,2.1809c8.2772,2.5967,16.2398,5.6788,23.8201,9.1747
		c2.3907,1.1429,4.7811,2.3194,7.1004,3.4979c2.3534,1.2457,4.6727,2.4918,6.9246,3.8089h0.0339
		c0.0336,0.0336,0.0336,0.0336,0.0675,0.0336c0.071,0.0696,0.1385,0.0696,0.2098,0.1388
		c5.5718,3.2203,10.8701,6.7165,15.8572,10.4204C1079.3545,475.4645,1099.0902,508.39,1099.0902,544.7796z"/>
	<path d="M1042.3145,508.8938c0-26.4099-30.7817-47.8192-68.7451-47.8192c-37.9631,0-68.7382,21.4093-68.7382,47.8192
		s68.7382,47.8192,68.7382,47.8192S1042.3145,535.3037,1042.3145,508.8938z"/>
	<ellipse fill="#FBF7CA" cx="976.5581" cy="487.8024" rx="30.633" ry="14.9411"/>
	<ellipse fill="#61220E" cx="845.6648" cy="568.4221" rx="3.0227" ry="3.7514"/>
	<ellipse fill="#61220E" cx="845.6647" cy="532.6429" rx="3.7801" ry="4.6879"/>
	<ellipse fill="#61220E" cx="825.885" cy="549.4453" rx="3.7801" ry="4.6879"/>
	<ellipse fill="#61220E" cx="1062.5876" cy="504.2059" rx="3.7799" ry="4.6879"/>
	<ellipse fill="#61220E" cx="1078.3843" cy="517.9941" rx="3.0227" ry="3.7514"/>
	<path fill="#61220E" d="M1065.6104,532.6429c0-2.0712-1.3523-3.7514-3.0229-3.7514c-1.6702,0-3.0225,1.6802-3.0225,3.7514
		c0,2.069,1.3523,3.7496,3.0225,3.7496C1064.2581,536.3926,1065.6104,534.712,1065.6104,532.6429z"/>
	<path fill="#93231E" d="M901.1455,611.0918c8.7066,10.6995,100.1119,82.6261,137.0066-20.5115
		c-24.8917,13.8996-52.8301-9.7058-57.4318-11.0852c-12.2903,28.1885-47.8091,39.3546-77.4919,31.8553L901.1455,611.0918z"/>
	<path d="M864.4808,595.5638c130.011,44.8288,109.0886-38.8508,109.0886-38.8508s6.7691,12.6352,11.9556,19.4247
		c8.5137,11.1423,53.2799,37.5743,74.7162-31.3734c0.5883-1.8953,5.7816-1.9139,5.2339-0.007
		c-26.6702,92.0916-82.6008,40.3452-82.6008,40.3452s-14.4578,55.5892-118.3934,14.3833
		C862.0499,598.5223,862.0125,594.7118,864.4808,595.5638z"/>
	<path opacity="0.5" fill="#AF4725" d="M659.7282,151.4312c-4.7793,1.7651-9.9371,4.0505-15.4431,6.9938
		c-21.3958,11.2524-48.3672,31.6102-82.3322,65.5751c-45.4254,45.424-67.0985,81.1556-75.5817,108.8182
		c-1.6955,5.5064-2.8384,10.6998-3.5655,15.5802c-25.8282-26.6585-91.4036-154.2096-21.2926-214.4867
		C545.0574,62.1035,639.4043,134.1891,659.7282,151.4312z"/>
	<linearGradient id="SVGID_5_" gradientUnits="userSpaceOnUse" x1="445.5373" y1="225.0131" x2="644.2851" y2="225.0131">
		<stop  offset="0" style="stop-color:#FFFFFF"/>
		<stop  offset="1" style="stop-color:#BE6328"/>
	</linearGradient>
	<path fill="url(#SVGID_5_)" d="M644.2851,158.425c-21.3958,11.2524-48.3672,31.6102-82.3322,65.5751
		c-45.4254,45.424-67.0985,81.1556-75.5817,108.8182c-49.6483-88.702-52.7997-159.8867-16.0992-190.8051
		C536.3325,86.4087,618.2502,138.8974,644.2851,158.425z"/>
</g>
</svg>
